solid Pedal Case
facet normal -0.627533125244299 0.778589864255323 0.0
outer loop
vertex 275.165100318714 4.92610673278013 0.0250000000000028
vertex 276.743654997879 6.19840091057893 -0.974999999999989
vertex 275.165100318714 4.92610673278013 -0.974999999999989
endloop
endfacet
facet normal -0.627533125244299 0.778589864255323 0.0
outer loop
vertex 276.743654997879 6.19840091057893 -0.974999999999989
vertex 275.165100318714 4.92610673278013 0.0250000000000028
vertex 276.743654997879 6.19840091057893 0.0250000000000028
endloop
endfacet
facet normal 0.0 0.0 1.0
outer loop
vertex 260.378905021064 1.016474580516 0.0250000000000028
vertex 255.715729912453 12.6538217451445 0.0250000000000028
vertex 252.463197662095 15.3744408139381 0.0250000000000028
endloop
endfacet
facet normal 0.0 0.0 1.0
outer loop
vertex 255.715729912453 12.6538217451445 0.0250000000000028
vertex 260.378905021064 1.016474580516 0.0250000000000028
vertex 257.827673717371 8.74306081455885 0.025
endloop
endfacet
facet normal 0.0 0.0 1.0
outer loop
vertex 255.715729912453 12.6538217451445 0.0250000000000028
vertex 257.827673717371 8.74306081455885 0.025
vertex 257.16729635888 10.7430608145588 0.025
endloop
endfacet
facet normal 0.0 0.0 1.0
outer loop
vertex 255.715729912453 12.6538217451445 0.0250000000000028
vertex 257.16729635888 10.7430608145588 0.025
vertex 256.99430788515 11.26696876357 0.0250000000000028
endloop
endfacet
facet normal 0.0 0.0 1.0
outer loop
vertex 257.831916033446 13.0378246228355 0.0250000000000028
vertex 255.715729912453 12.6538217451445 0.0250000000000028
vertex 256.99430788515 11.26696876357 0.0250000000000028
endloop
endfacet
facet normal -0.00663358129054301 -0.0059940562684065 -0.999960032645662
outer loop
vertex 270.541839689161 10.7430608145588 -0.449999999999894
vertex 267.654148306023 9.76821756606022 -0.424999999999615
vertex 266.77328696907 10.7430608145588 -0.424999999999617
endloop
endfacet
facet normal 4.69938054426943e-16 6.01665886167674e-16 -1.0
outer loop
vertex 257.16729635888 10.7430608145588 -0.424999999999619
vertex 259.307609851424 10.5811953288583 -0.424999999999616
vertex 257.827673717371 8.74306081455885 -0.424999999999619
endloop
endfacet
facet normal 4.69938054426943e-16 6.01665886167674e-16 -1.0
outer loop
vertex 259.307609851424 10.5811953288583 -0.424999999999616
vertex 257.16729635888 10.7430608145588 -0.424999999999619
vertex 259.760323474305 10.7430608145588 -0.424999999999617
endloop
endfacet
facet normal 4.69938054426943e-16 6.01665886167674e-16 -1.0
outer loop
vertex 262.002299775582 8.74306081455885 -0.424999999999617
vertex 257.827673717371 8.74306081455885 -0.424999999999619
vertex 259.307609851424 10.5811953288583 -0.424999999999616
endloop
endfacet
facet normal -0.972806214685373 -0.231620527306014 0.0
outer loop
vertex 278.098112739444 14.2409639334451 0.0250000000000028
vertex 278.883423264408 10.9426597285955 -0.974999999999997
vertex 278.883423264408 10.9426597285955 0.0250000000000028
endloop
endfacet
facet normal -0.972806214685373 -0.231620527306014 0.0
outer loop
vertex 278.883423264408 10.9426597285955 -0.974999999999997
vertex 278.098112739444 14.2409639334451 0.0250000000000028
vertex 278.098112739444 14.2409639334451 -0.974999999999997
endloop
endfacet
facet normal 0.0 1.0 2.94720315055173e-16
outer loop
vertex 270.860008666878 10.7430608145588 0.0250000000000014
vertex 272.198403372573 10.7430608145588 -0.449999999999894
vertex 270.860008666878 10.7430608145588 -0.449999999999894
endloop
endfacet
facet normal 0.0 1.0 2.94720315055173e-16
outer loop
vertex 272.198403372573 10.7430608145588 -0.449999999999894
vertex 270.860008666878 10.7430608145588 0.0250000000000014
vertex 272.198403372573 10.7430608145588 0.0250000000000014
endloop
endfacet
facet normal 0.881908145701574 0.471421279266445 0.0
outer loop
vertex 279.176966107446 14.0731839780703 -0.974999999999997
vertex 286.666636956008 0.061933276258853 0.0250000000000028
vertex 286.666636956008 0.061933276258853 -0.974999999999997
endloop
endfacet
facet normal 0.881908145701574 0.471421279266445 0.0
outer loop
vertex 286.666636956008 0.061933276258853 0.0250000000000028
vertex 279.176966107446 14.0731839780703 -0.974999999999997
vertex 279.176966107446 14.0731839780703 0.0250000000000028
endloop
endfacet
facet normal 0.493214297207603 0.869907843986942 0.0
outer loop
vertex 272.118601442386 14.7781313406128 0.0250000000000028
vertex 278.883423264408 10.9426597285955 -0.974999999999997
vertex 272.118601442386 14.7781313406128 -0.974999999999997
endloop
endfacet
facet normal 0.493214297207603 0.869907843986942 0.0
outer loop
vertex 278.883423264408 10.9426597285955 -0.974999999999997
vertex 272.118601442386 14.7781313406128 0.0250000000000028
vertex 278.883423264408 10.9426597285955 0.0250000000000028
endloop
endfacet
facet normal 0.204641742802585 0.978836941018636 0.0
outer loop
vertex 258.509045342144 19.7529644683777 0.0250000000000028
vertex 289.383881147318 13.2980791415741 -0.974999999999997
vertex 258.509045342144 19.7529644683777 -0.974999999999997
endloop
endfacet
facet normal 0.204641742802585 0.978836941018636 0.0
outer loop
vertex 289.383881147318 13.2980791415741 -0.974999999999997
vertex 258.509045342144 19.7529644683777 0.0250000000000028
vertex 289.383881147318 13.2980791415741 0.0250000000000028
endloop
endfacet
facet normal -3.26645515191914e-31 1.0 6.0071684061944e-16
outer loop
vertex 257.16729635888 10.7430608145588 0.025
vertex 259.760323474305 10.7430608145588 -0.424999999999617
vertex 257.16729635888 10.7430608145588 -0.424999999999619
endloop
endfacet
facet normal -3.26645515191914e-31 1.0 6.0071684061944e-16
outer loop
vertex 259.760323474305 10.7430608145588 -0.424999999999617
vertex 257.16729635888 10.7430608145588 0.025
vertex 259.760323474305 10.7430608145588 0.0250000000000014
endloop
endfacet
facet normal 2.0289258635717e-31 -1.0 -6.0071684061944e-16
outer loop
vertex 262.002299775582 8.74306081455885 -0.424999999999617
vertex 257.827673717371 8.74306081455885 0.025
vertex 257.827673717371 8.74306081455885 -0.424999999999619
endloop
endfacet
facet normal 2.0289258635717e-31 -1.0 -6.0071684061944e-16
outer loop
vertex 257.827673717371 8.74306081455885 0.025
vertex 262.002299775582 8.74306081455885 -0.424999999999617
vertex 262.002299775582 8.74306081455885 0.0250000000000014
endloop
endfacet
facet normal -6.37794552359113e-17 2.94720315055173e-16 -1.0
outer loop
vertex 270.860008666878 10.7430608145588 -0.449999999999894
vertex 270.589967793445 8.74306081455885 -0.449999999999895
vertex 269.269764764439 8.74306081455885 -0.449999999999895
endloop
endfacet
facet normal -6.37794552359113e-17 2.94720315055173e-16 -1.0
outer loop
vertex 270.589967793445 8.74306081455885 -0.449999999999895
vertex 270.860008666878 10.7430608145588 -0.449999999999894
vertex 272.198403372573 10.7430608145588 -0.449999999999894
endloop
endfacet
facet normal -0.557236928169525 -0.830353542705872 0.0
outer loop
vertex 286.666636956008 0.061933276258853 0.0250000000000028
vertex 280.924947795561 3.91508866817267 -0.974999999999997
vertex 286.666636956008 0.061933276258853 -0.974999999999997
endloop
endfacet
facet normal -0.557236928169525 -0.830353542705872 0.0
outer loop
vertex 280.924947795561 3.91508866817267 -0.974999999999997
vertex 286.666636956008 0.061933276258853 0.0250000000000028
vertex 280.924947795561 3.91508866817267 0.0250000000000028
endloop
endfacet
facet normal -0.0894743516897435 -0.995989126642304 0.0
outer loop
vertex 278.098112739444 14.2409639334451 0.0250000000000028
vertex 272.118601442386 14.7781313406128 -0.974999999999997
vertex 278.098112739444 14.2409639334451 -0.974999999999997
endloop
endfacet
facet normal -0.0894743516897435 -0.995989126642304 0.0
outer loop
vertex 272.118601442386 14.7781313406128 -0.974999999999997
vertex 278.098112739444 14.2409639334451 0.0250000000000028
vertex 272.118601442386 14.7781313406128 0.0250000000000028
endloop
endfacet
facet normal 0.949575317204018 0.313539019831486 6.34375641128184e-16
outer loop
vertex 257.16729635888 10.7430608145588 -0.424999999999619
vertex 257.827673717371 8.74306081455885 0.025
vertex 257.827673717371 8.74306081455885 -0.424999999999619
endloop
endfacet
facet normal 0.949575317204018 0.313539019831486 6.34375641128184e-16
outer loop
vertex 257.827673717371 8.74306081455885 0.025
vertex 257.16729635888 10.7430608145588 -0.424999999999619
vertex 257.16729635888 10.7430608145588 0.025
endloop
endfacet
facet normal -0.446441593965246 -0.894812775488688 -6.99706354228398e-15
outer loop
vertex 279.393695928107 9.33315716074001 -0.474999999999997
vertex 258.509045342144 19.7529644683777 -0.974999999999997
vertex 279.393695928107 9.33315716074001 -0.974999999999997
endloop
endfacet
facet normal -0.446441593965246 -0.894812775488688 -6.99706354228398e-15
outer loop
vertex 258.509045342144 19.7529644683777 -0.974999999999997
vertex 279.393695928107 9.33315716074001 -0.474999999999997
vertex 276.567794805319 10.7430608145588 -0.475
endloop
endfacet
facet normal -0.446441593965246 -0.894812775488688 -6.99706354228398e-15
outer loop
vertex 276.567794805319 10.7430608145588 -0.475
vertex 258.509045342144 19.7529644683777 0.0250000000000028
vertex 258.509045342144 19.7529644683777 -0.974999999999997
endloop
endfacet
facet normal -0.446441593965246 -0.894812775488688 -6.99706354228398e-15
outer loop
vertex 258.509045342144 19.7529644683777 0.0250000000000028
vertex 276.567794805319 10.7430608145588 -0.475
vertex 276.567794805319 10.7430608145588 0.025
endloop
endfacet
facet normal 0.0 0.0 -1.0
outer loop
vertex 289.383881147318 13.2980791415741 -0.974999999999997
vertex 272.118601442386 14.7781313406128 -0.974999999999997
vertex 258.509045342144 19.7529644683777 -0.974999999999997
endloop
endfacet
facet normal 0.0 0.0 -1.0
outer loop
vertex 272.118601442386 14.7781313406128 -0.974999999999997
vertex 289.383881147318 13.2980791415741 -0.974999999999997
vertex 278.098112739444 14.2409639334451 -0.974999999999997
endloop
endfacet
facet normal 0.0 0.0 -1.0
outer loop
vertex 278.098112739444 14.2409639334451 -0.974999999999997
vertex 289.383881147318 13.2980791415741 -0.974999999999997
vertex 279.176966107446 14.0731839780703 -0.974999999999997
endloop
endfacet
facet normal 0.0 0.0 -1.0
outer loop
vertex 278.098112739444 14.2409639334451 -0.974999999999997
vertex 279.176966107446 14.0731839780703 -0.974999999999997
vertex 278.883423264408 10.9426597285955 -0.974999999999997
endloop
endfacet
facet normal 0.0 0.0 -1.0
outer loop
vertex 272.118601442386 14.7781313406128 -0.974999999999997
vertex 279.393695928107 9.33315716074001 -0.974999999999997
vertex 258.509045342144 19.7529644683777 -0.974999999999997
endloop
endfacet
facet normal 0.0 0.0 -1.0
outer loop
vertex 279.393695928107 9.33315716074001 -0.974999999999997
vertex 272.118601442386 14.7781313406128 -0.974999999999997
vertex 278.883423264408 10.9426597285955 -0.974999999999997
endloop
endfacet
facet normal 0.0 0.0 -1.0
outer loop
vertex 279.393695928107 9.33315716074001 -0.974999999999997
vertex 278.883423264408 10.9426597285955 -0.974999999999997
vertex 279.176966107446 14.0731839780703 -0.974999999999997
endloop
endfacet
facet normal 0.0 0.0 -1.0
outer loop
vertex 279.393695928107 9.33315716074001 -0.974999999999997
vertex 279.176966107446 14.0731839780703 -0.974999999999997
vertex 286.666636956008 0.061933276258853 -0.974999999999997
endloop
endfacet
facet normal 0.0 0.0 -1.0
outer loop
vertex 279.393695928107 9.33315716074001 -0.974999999999997
vertex 286.666636956008 0.061933276258853 -0.974999999999997
vertex 280.924947795561 3.91508866817267 -0.974999999999997
endloop
endfacet
facet normal -0.0757211685982594 -0.997129031081792 0.0
outer loop
vertex 289.383881147318 13.2980791415741 0.0250000000000028
vertex 279.176966107446 14.0731839780703 -0.974999999999997
vertex 289.383881147318 13.2980791415741 -0.974999999999997
endloop
endfacet
facet normal -0.0757211685982594 -0.997129031081792 0.0
outer loop
vertex 279.176966107446 14.0731839780703 -0.974999999999997
vertex 289.383881147318 13.2980791415741 0.0250000000000028
vertex 279.176966107446 14.0731839780703 0.0250000000000028
endloop
endfacet
facet normal -0.962306679320383 -0.271966643056418 -1.26168219683908e-14
outer loop
vertex 279.560468668855 8.74306081455885 0.025
vertex 280.924947795561 3.91508866817267 -0.974999999999997
vertex 280.924947795561 3.91508866817267 0.0250000000000028
endloop
endfacet
facet normal -0.962306679320383 -0.271966643056418 -1.26168219683908e-14
outer loop
vertex 280.924947795561 3.91508866817267 -0.974999999999997
vertex 279.560468668855 8.74306081455885 0.025
vertex 279.560468668855 8.74306081455885 -0.475
endloop
endfacet
facet normal -0.962306679320383 -0.271966643056418 -1.26168219683908e-14
outer loop
vertex 280.924947795561 3.91508866817267 -0.974999999999997
vertex 279.560468668855 8.74306081455885 -0.475
vertex 279.393695928107 9.33315716074001 -0.974999999999997
endloop
endfacet
facet normal -0.962306679320383 -0.271966643056418 -1.26168219683908e-14
outer loop
vertex 279.393695928107 9.33315716074001 -0.974999999999997
vertex 279.560468668855 8.74306081455885 -0.475
vertex 279.393695928107 9.33315716074001 -0.474999999999997
endloop
endfacet
facet normal -1.36723685606231e-17 1.86093348745886e-16 -1.0
outer loop
vertex 264.33737780689 10.7430608145588 -0.424999999999616
vertex 264.473530510799 8.74306081455885 -0.424999999999616
vertex 263.332905510799 10.7430608145588 -0.424999999999616
endloop
endfacet
facet normal -1.36723685606231e-17 1.86093348745886e-16 -1.0
outer loop
vertex 264.473530510799 8.74306081455885 -0.424999999999616
vertex 264.33737780689 10.7430608145588 -0.424999999999616
vertex 265.553252851598 8.74306081455885 -0.424999999999616
endloop
endfacet
facet normal -0.779262936594411 0.626697116357061 -4.07807165902328e-15
outer loop
vertex 272.24030436604 10.7951623646744 0.0250000000000028
vertex 272.198403372573 10.7430608145588 -0.449999999999894
vertex 272.198403372573 10.7430608145588 0.0250000000000014
endloop
endfacet
facet normal -0.779262936594411 0.626697116357061 -4.07807165902328e-15
outer loop
vertex 270.589967793445 8.74306081455885 0.0250000000000008
vertex 263.608450593671 0.061933276258853 -0.97499999999998
vertex 263.608450593671 0.061933276258853 0.0250000000000028
endloop
endfacet
facet normal -0.779262936594411 0.626697116357061 -4.07807165902328e-15
outer loop
vertex 263.608450593671 0.061933276258853 -0.97499999999998
vertex 270.589967793445 8.74306081455885 0.0250000000000008
vertex 270.589967793445 8.74306081455885 -0.449999999999895
endloop
endfacet
facet normal -0.779262936594411 0.626697116357061 -4.07807165902328e-15
outer loop
vertex 263.608450593671 0.061933276258853 -0.97499999999998
vertex 270.589967793445 8.74306081455885 -0.449999999999895
vertex 272.24030436604 10.7951623646744 -0.97499999999998
endloop
endfacet
facet normal -0.779262936594411 0.626697116357061 -4.07807165902328e-15
outer loop
vertex 272.24030436604 10.7951623646744 -0.97499999999998
vertex 270.589967793445 8.74306081455885 -0.449999999999895
vertex 272.198403372573 10.7430608145588 -0.449999999999894
endloop
endfacet
facet normal -0.779262936594411 0.626697116357061 -4.07807165902328e-15
outer loop
vertex 272.24030436604 10.7951623646744 -0.97499999999998
vertex 272.198403372573 10.7430608145588 -0.449999999999894
vertex 272.24030436604 10.7951623646744 0.0250000000000028
endloop
endfacet
facet normal 0.939337387974438 0.342994564903527 -1.61613115032739e-15
outer loop
vertex 272.24030436604 10.7951623646744 -0.97499999999998
vertex 274.298328756911 5.15898193058363 0.0250000000000028
vertex 274.298328756911 5.15898193058363 -0.97499999999998
endloop
endfacet
facet normal 0.939337387974438 0.342994564903527 -1.61613115032739e-15
outer loop
vertex 274.298328756911 5.15898193058363 0.0250000000000028
vertex 272.24030436604 10.7951623646744 -0.97499999999998
vertex 272.989619454878 8.74306081455885 -0.44999999999989
endloop
endfacet
facet normal 0.939337387974438 0.342994564903527 -1.61613115032739e-15
outer loop
vertex 272.989619454878 8.74306081455885 -0.44999999999989
vertex 272.24030436604 10.7951623646744 -0.97499999999998
vertex 272.259328998447 10.7430608145588 -0.44999999999989
endloop
endfacet
facet normal 0.939337387974438 0.342994564903527 -1.61613115032739e-15
outer loop
vertex 272.259328998447 10.7430608145588 -0.44999999999989
vertex 272.24030436604 10.7951623646744 -0.97499999999998
vertex 272.259328998447 10.7430608145588 0.0250000000000014
endloop
endfacet
facet normal 0.939337387974438 0.342994564903527 -1.61613115032739e-15
outer loop
vertex 272.259328998447 10.7430608145588 0.0250000000000014
vertex 272.24030436604 10.7951623646744 -0.97499999999998
vertex 272.24030436604 10.7951623646744 0.0250000000000028
endloop
endfacet
facet normal 0.939337387974438 0.342994564903527 -1.61613115032739e-15
outer loop
vertex 272.989619454878 8.74306081455885 0.025000000000001
vertex 274.298328756911 5.15898193058363 0.0250000000000028
vertex 272.989619454878 8.74306081455885 -0.44999999999989
endloop
endfacet
facet normal 0.603497194983184 -0.797365120661438 0.0
outer loop
vertex 271.795323345992 6.25828500231836 0.0250000000000028
vertex 263.608450593671 0.061933276258853 -0.97499999999998
vertex 271.795323345992 6.25828500231836 -0.97499999999998
endloop
endfacet
facet normal 0.603497194983184 -0.797365120661438 0.0
outer loop
vertex 263.608450593671 0.061933276258853 -0.97499999999998
vertex 271.795323345992 6.25828500231836 0.0250000000000028
vertex 263.608450593671 0.061933276258853 0.0250000000000028
endloop
endfacet
facet normal -0.402119677241661 -0.915587115011489 0.0
outer loop
vertex 274.298328756911 5.15898193058363 0.0250000000000028
vertex 271.795323345992 6.25828500231836 -0.97499999999998
vertex 274.298328756911 5.15898193058363 -0.97499999999998
endloop
endfacet
facet normal -0.402119677241661 -0.915587115011489 0.0
outer loop
vertex 271.795323345992 6.25828500231836 -0.97499999999998
vertex 274.298328756911 5.15898193058363 0.0250000000000028
vertex 271.795323345992 6.25828500231836 0.0250000000000028
endloop
endfacet
facet normal -4.74638271010293e-33 -1.0 -1.86093348745886e-16
outer loop
vertex 265.553252851598 8.74306081455885 0.025000000000001
vertex 264.473530510799 8.74306081455885 -0.424999999999616
vertex 265.553252851598 8.74306081455885 -0.424999999999616
endloop
endfacet
facet normal -4.74638271010293e-33 -1.0 -1.86093348745886e-16
outer loop
vertex 264.473530510799 8.74306081455885 -0.424999999999616
vertex 265.553252851598 8.74306081455885 0.025000000000001
vertex 264.473530510799 8.74306081455885 0.025000000000001
endloop
endfacet
facet normal 0.0 0.0 -1.0
outer loop
vertex 272.24030436604 10.7951623646744 -0.97499999999998
vertex 271.795323345992 6.25828500231836 -0.97499999999998
vertex 263.608450593671 0.061933276258853 -0.97499999999998
endloop
endfacet
facet normal 0.0 0.0 -1.0
outer loop
vertex 271.795323345992 6.25828500231836 -0.97499999999998
vertex 272.24030436604 10.7951623646744 -0.97499999999998
vertex 274.298328756911 5.15898193058363 -0.97499999999998
endloop
endfacet
facet normal 0.0 1.0 1.86093348745886e-16
outer loop
vertex 263.332905510799 10.7430608145588 0.0250000000000014
vertex 264.33737780689 10.7430608145588 -0.424999999999616
vertex 263.332905510799 10.7430608145588 -0.424999999999616
endloop
endfacet
facet normal 0.0 1.0 1.86093348745886e-16
outer loop
vertex 264.33737780689 10.7430608145588 -0.424999999999616
vertex 263.332905510799 10.7430608145588 0.0250000000000014
vertex 264.33737780689 10.7430608145588 0.0250000000000014
endloop
endfacet
facet normal 0.741967182546815 0.670436201307434 -4.18036611885737e-15
outer loop
vertex 259.328569540028 18.9820789417296 -0.974999999999972
vertex 267.654148306023 9.76821756606022 -0.424999999999615
vertex 267.654148306023 9.76821756606022 -0.974999999999972
endloop
endfacet
facet normal 0.741967182546815 0.670436201307434 -4.18036611885737e-15
outer loop
vertex 267.654148306023 9.76821756606022 -0.424999999999615
vertex 259.328569540028 18.9820789417296 -0.974999999999972
vertex 266.77328696907 10.7430608145588 -0.424999999999617
endloop
endfacet
facet normal 0.741967182546815 0.670436201307434 -4.18036611885737e-15
outer loop
vertex 266.77328696907 10.7430608145588 -0.424999999999617
vertex 259.328569540028 18.9820789417296 -0.974999999999972
vertex 266.77328696907 10.7430608145588 0.0250000000000014
endloop
endfacet
facet normal 0.741967182546815 0.670436201307434 -4.18036611885737e-15
outer loop
vertex 266.77328696907 10.7430608145588 0.0250000000000014
vertex 259.328569540028 18.9820789417296 -0.974999999999972
vertex 259.328569540028 18.9820789417296 0.0250000000000028
endloop
endfacet
facet normal -0.854486142459824 -0.519474188332904 -1.068647375566e-15
outer loop
vertex 259.328569540028 18.9820789417296 0.0250000000000028
vertex 264.33737780689 10.7430608145588 -0.424999999999616
vertex 264.33737780689 10.7430608145588 0.0250000000000014
endloop
endfacet
facet normal -0.854486142459824 -0.519474188332904 -1.068647375566e-15
outer loop
vertex 265.553252851598 8.74306081455885 0.025000000000001
vertex 267.163595881703 6.09419810927741 -0.974999999999972
vertex 267.163595881703 6.09419810927741 0.0250000000000028
endloop
endfacet
facet normal -0.854486142459824 -0.519474188332904 -1.068647375566e-15
outer loop
vertex 267.163595881703 6.09419810927741 -0.974999999999972
vertex 265.553252851598 8.74306081455885 0.025000000000001
vertex 265.553252851598 8.74306081455885 -0.424999999999616
endloop
endfacet
facet normal -0.854486142459824 -0.519474188332904 -1.068647375566e-15
outer loop
vertex 267.163595881703 6.09419810927741 -0.974999999999972
vertex 265.553252851598 8.74306081455885 -0.424999999999616
vertex 259.328569540028 18.9820789417296 -0.974999999999972
endloop
endfacet
facet normal -0.854486142459824 -0.519474188332904 -1.068647375566e-15
outer loop
vertex 259.328569540028 18.9820789417296 -0.974999999999972
vertex 265.553252851598 8.74306081455885 -0.424999999999616
vertex 264.33737780689 10.7430608145588 -0.424999999999616
endloop
endfacet
facet normal -0.854486142459824 -0.519474188332904 -1.068647375566e-15
outer loop
vertex 259.328569540028 18.9820789417296 -0.974999999999972
vertex 264.33737780689 10.7430608145588 -0.424999999999616
vertex 259.328569540028 18.9820789417296 0.0250000000000028
endloop
endfacet
facet normal 1.31195158672767e-16 -7.63957292377521e-17 -1.0
outer loop
vertex 276.567794805319 10.7430608145588 -0.475
vertex 274.434687124443 10.3696353841572 -0.474999999999999
vertex 274.434687124443 10.7430608145588 -0.475
endloop
endfacet
facet normal 1.31195158672767e-16 -7.63957292377521e-17 -1.0
outer loop
vertex 274.434687124443 10.3696353841572 -0.474999999999999
vertex 276.567794805319 10.7430608145588 -0.475
vertex 277.056840029303 10.0141455200645 -0.474999999999997
endloop
endfacet
facet normal 1.31195158672767e-16 -7.63957292377521e-17 -1.0
outer loop
vertex 277.056840029303 10.0141455200645 -0.474999999999997
vertex 276.567794805319 10.7430608145588 -0.475
vertex 279.393695928107 9.33315716074001 -0.474999999999997
endloop
endfacet
facet normal 1.31195158672767e-16 -7.63957292377521e-17 -1.0
outer loop
vertex 277.056840029303 10.0141455200645 -0.474999999999997
vertex 279.393695928107 9.33315716074001 -0.474999999999997
vertex 277.672099115479 8.74306081455885 -0.474999999999999
endloop
endfacet
facet normal 1.31195158672767e-16 -7.63957292377521e-17 -1.0
outer loop
vertex 277.672099115479 8.74306081455885 -0.474999999999999
vertex 279.393695928107 9.33315716074001 -0.474999999999997
vertex 279.560468668855 8.74306081455885 -0.475
endloop
endfacet
facet normal 0.0 1.0 0.0
outer loop
vertex 274.434687124443 10.7430608145588 0.025
vertex 276.567794805319 10.7430608145588 -0.475
vertex 274.434687124443 10.7430608145588 -0.475
endloop
endfacet
facet normal 0.0 1.0 0.0
outer loop
vertex 276.567794805319 10.7430608145588 -0.475
vertex 274.434687124443 10.7430608145588 0.025
vertex 276.567794805319 10.7430608145588 0.025
endloop
endfacet
facet normal 0.0 0.0 -1.0
outer loop
vertex 267.654148306023 9.76821756606022 -0.974999999999972
vertex 267.163595881703 6.09419810927741 -0.974999999999972
vertex 259.328569540028 18.9820789417296 -0.974999999999972
endloop
endfacet
facet normal 0.0 0.0 -1.0
outer loop
vertex 267.163595881703 6.09419810927741 -0.974999999999972
vertex 267.654148306023 9.76821756606022 -0.974999999999972
vertex 270.976747358268 10.8898794141588 -0.974999999999972
endloop
endfacet
facet normal -0.319851517852867 0.947467680993509 9.17141744470042e-16
outer loop
vertex 267.654148306023 9.76821756606022 -0.424999999999615
vertex 270.976747358268 10.8898794141588 -0.974999999999972
vertex 267.654148306023 9.76821756606022 -0.974999999999972
endloop
endfacet
facet normal -0.319851517852867 0.947467680993509 9.17141744470042e-16
outer loop
vertex 270.976747358268 10.8898794141588 -0.974999999999972
vertex 267.654148306023 9.76821756606022 -0.424999999999615
vertex 270.541839689161 10.7430608145588 -0.449999999999894
endloop
endfacet
facet normal -0.319851517852867 0.947467680993509 9.17141744470042e-16
outer loop
vertex 270.541839689161 10.7430608145588 -0.449999999999894
vertex 270.976747358268 10.8898794141588 0.0250000000000028
vertex 270.976747358268 10.8898794141588 -0.974999999999972
endloop
endfacet
facet normal -0.319851517852867 0.947467680993509 9.17141744470042e-16
outer loop
vertex 270.976747358268 10.8898794141588 0.0250000000000028
vertex 270.541839689161 10.7430608145588 -0.449999999999894
vertex 270.541839689161 10.7430608145588 0.0250000000000014
endloop
endfacet
facet normal 5.84046064078004e-32 -1.0 7.82204194269432e-17
outer loop
vertex 279.560468668855 8.74306081455885 0.025
vertex 277.672099115479 8.74306081455885 -0.474999999999999
vertex 279.560468668855 8.74306081455885 -0.475
endloop
endfacet
facet normal 5.84046064078004e-32 -1.0 7.82204194269432e-17
outer loop
vertex 277.672099115479 8.74306081455885 -0.474999999999999
vertex 279.560468668855 8.74306081455885 0.025
vertex 277.672099115479 8.74306081455885 0.0250000000000014
endloop
endfacet
facet normal 0.782727867859428 -0.622364109566284 -1.24663704893899e-15
outer loop
vertex 270.976747358268 10.8898794141588 -0.974999999999972
vertex 267.163595881703 6.09419810927741 0.0250000000000028
vertex 267.163595881703 6.09419810927741 -0.974999999999972
endloop
endfacet
facet normal 0.782727867859428 -0.622364109566284 -1.24663704893899e-15
outer loop
vertex 267.163595881703 6.09419810927741 0.0250000000000028
vertex 270.976747358268 10.8898794141588 -0.974999999999972
vertex 269.269764764439 8.74306081455885 -0.449999999999895
endloop
endfacet
facet normal 0.782727867859428 -0.622364109566284 -1.24663704893899e-15
outer loop
vertex 269.269764764439 8.74306081455885 -0.449999999999895
vertex 270.976747358268 10.8898794141588 -0.974999999999972
vertex 270.860008666878 10.7430608145588 -0.449999999999894
endloop
endfacet
facet normal 0.782727867859428 -0.622364109566284 -1.24663704893899e-15
outer loop
vertex 270.860008666878 10.7430608145588 -0.449999999999894
vertex 270.976747358268 10.8898794141588 -0.974999999999972
vertex 270.860008666878 10.7430608145588 0.0250000000000014
endloop
endfacet
facet normal 0.782727867859428 -0.622364109566284 -1.24663704893899e-15
outer loop
vertex 270.860008666878 10.7430608145588 0.0250000000000014
vertex 270.976747358268 10.8898794141588 -0.974999999999972
vertex 270.976747358268 10.8898794141588 0.0250000000000028
endloop
endfacet
facet normal 0.782727867859428 -0.622364109566284 -1.24663704893899e-15
outer loop
vertex 269.269764764439 8.74306081455885 0.025000000000001
vertex 267.163595881703 6.09419810927741 0.0250000000000028
vertex 269.269764764439 8.74306081455885 -0.449999999999895
endloop
endfacet
facet normal -1.96985369940484e-17 1.0 -1.79881497094283e-15
outer loop
vertex 266.77328696907 10.7430608145588 0.0250000000000014
vertex 268.434687124443 10.7430608145588 0.025
vertex 266.77328696907 10.7430608145588 -0.424999999999617
endloop
endfacet
facet normal -1.96985369940484e-17 1.0 -1.79881497094283e-15
outer loop
vertex 266.77328696907 10.7430608145588 -0.424999999999617
vertex 270.541839689161 10.7430608145588 0.0250000000000014
vertex 270.541839689161 10.7430608145588 -0.449999999999894
endloop
endfacet
facet normal -1.96985369940484e-17 1.0 -1.79881497094283e-15
outer loop
vertex 270.541839689161 10.7430608145588 0.0250000000000014
vertex 266.77328696907 10.7430608145588 -0.424999999999617
vertex 268.434687124443 10.7430608145588 0.025
endloop
endfacet
facet normal -1.96985369940484e-17 1.0 -1.79881497094283e-15
outer loop
vertex 270.541839689161 10.7430608145588 0.0250000000000014
vertex 268.434687124443 10.7430608145588 0.025
vertex 268.434687124443 10.7430608145588 1.025
endloop
endfacet
facet normal -1.96985369940484e-17 1.0 -1.79881497094283e-15
outer loop
vertex 270.541839689161 10.7430608145588 0.0250000000000014
vertex 268.434687124443 10.7430608145588 1.025
vertex 270.860008666878 10.7430608145588 0.0250000000000014
endloop
endfacet
facet normal -1.96985369940484e-17 1.0 -1.79881497094283e-15
outer loop
vertex 270.860008666878 10.7430608145588 0.0250000000000014
vertex 268.434687124443 10.7430608145588 1.025
vertex 272.198403372573 10.7430608145588 0.0250000000000014
endloop
endfacet
facet normal -1.96985369940484e-17 1.0 -1.79881497094283e-15
outer loop
vertex 272.198403372573 10.7430608145588 0.0250000000000014
vertex 268.434687124443 10.7430608145588 1.025
vertex 272.259328998447 10.7430608145588 0.0250000000000014
endloop
endfacet
facet normal -1.96985369940484e-17 1.0 -1.79881497094283e-15
outer loop
vertex 272.259328998447 10.7430608145588 0.0250000000000014
vertex 274.434687124443 10.7430608145588 1.025
vertex 274.434687124443 10.7430608145588 0.025
endloop
endfacet
facet normal -1.96985369940484e-17 1.0 -1.79881497094283e-15
outer loop
vertex 274.434687124443 10.7430608145588 1.025
vertex 272.259328998447 10.7430608145588 0.0250000000000014
vertex 268.434687124443 10.7430608145588 1.025
endloop
endfacet
facet normal -0.639854954831011 0.76849569730624 0.0
outer loop
vertex 260.730324793453 7.27453690973794 0.0250000000000028
vertex 262.272622574508 8.55866495429575 -0.974999999999963
vertex 260.730324793453 7.27453690973794 -0.974999999999963
endloop
endfacet
facet normal -0.639854954831011 0.76849569730624 0.0
outer loop
vertex 262.272622574508 8.55866495429575 -0.974999999999963
vertex 260.730324793453 7.27453690973794 0.0250000000000028
vertex 262.272622574508 8.55866495429575 0.0250000000000028
endloop
endfacet
facet normal -0.336672194400702 0.941621916438554 -2.68120757967749e-15
outer loop
vertex 259.307609851424 10.5811953288583 -0.424999999999616
vertex 260.497569135838 11.0066593038755 -0.974999999999963
vertex 259.307609851424 10.5811953288583 -0.974999999999963
endloop
endfacet
facet normal -0.336672194400702 0.941621916438554 -2.68120757967749e-15
outer loop
vertex 260.497569135838 11.0066593038755 -0.974999999999963
vertex 259.307609851424 10.5811953288583 -0.424999999999616
vertex 259.760323474305 10.7430608145588 -0.424999999999617
endloop
endfacet
facet normal -0.336672194400702 0.941621916438554 -2.68120757967749e-15
outer loop
vertex 259.760323474305 10.7430608145588 -0.424999999999617
vertex 260.497569135838 11.0066593038755 0.0250000000000028
vertex 260.497569135838 11.0066593038755 -0.974999999999963
endloop
endfacet
facet normal -0.336672194400702 0.941621916438554 -2.68120757967749e-15
outer loop
vertex 260.497569135838 11.0066593038755 0.0250000000000028
vertex 259.760323474305 10.7430608145588 -0.424999999999617
vertex 259.760323474305 10.7430608145588 0.0250000000000014
endloop
endfacet
facet normal 1.0 1.01217837866743e-14 1.71249660841219e-13
outer loop
vertex 274.434687124443 10.7430608145588 0.025
vertex 274.434687124443 8.74306081455885 1.025
vertex 274.434687124443 8.74306081455885 0.025
endloop
endfacet
facet normal 1.0 1.01217837866743e-14 1.71249660841219e-13
outer loop
vertex 274.434687124443 8.74306081455885 1.025
vertex 274.434687124443 10.7430608145588 0.025
vertex 274.434687124443 10.7430608145588 1.025
endloop
endfacet
facet normal -0.707158013796676 -0.70705554486415 0.0
outer loop
vertex 258.439302493656 13.065224237171 0.0250000000000028
vertex 260.497569135838 11.0066593038755 -0.974999999999963
vertex 260.497569135838 11.0066593038755 0.0250000000000028
endloop
endfacet
facet normal -0.707158013796676 -0.70705554486415 0.0
outer loop
vertex 260.497569135838 11.0066593038755 -0.974999999999963
vertex 258.439302493656 13.065224237171 0.0250000000000028
vertex 258.439302493656 13.065224237171 -0.974999999999963
endloop
endfacet
facet normal 0.868660459751213 0.495407918451867 2.68696102912053e-15
outer loop
vertex 265.783852495599 6.44550993710051 -0.974999999999963
vertex 264.473530510799 8.74306081455885 -0.424999999999616
vertex 265.783852495599 6.44550993710051 0.0250000000000028
endloop
endfacet
facet normal 0.868660459751213 0.495407918451867 2.68696102912053e-15
outer loop
vertex 264.473530510799 8.74306081455885 -0.424999999999616
vertex 265.783852495599 6.44550993710051 -0.974999999999963
vertex 262.368497147034 12.4340782195153 -0.974999999999963
endloop
endfacet
facet normal 0.868660459751213 0.495407918451867 2.68696102912053e-15
outer loop
vertex 264.473530510799 8.74306081455885 -0.424999999999616
vertex 262.368497147034 12.4340782195153 -0.974999999999963
vertex 263.332905510799 10.7430608145588 -0.424999999999616
endloop
endfacet
facet normal 0.868660459751213 0.495407918451867 2.68696102912053e-15
outer loop
vertex 263.332905510799 10.7430608145588 -0.424999999999616
vertex 262.368497147034 12.4340782195153 -0.974999999999963
vertex 263.332905510799 10.7430608145588 0.0250000000000014
endloop
endfacet
facet normal 0.868660459751213 0.495407918451867 2.68696102912053e-15
outer loop
vertex 263.332905510799 10.7430608145588 0.0250000000000014
vertex 262.368497147034 12.4340782195153 -0.974999999999963
vertex 262.368497147034 12.4340782195153 0.0250000000000028
endloop
endfacet
facet normal 0.868660459751213 0.495407918451867 2.68696102912053e-15
outer loop
vertex 264.473530510799 8.74306081455885 0.025000000000001
vertex 265.783852495599 6.44550993710051 0.0250000000000028
vertex 264.473530510799 8.74306081455885 -0.424999999999616
endloop
endfacet
facet normal 0.0 1.0 0.0
outer loop
vertex 272.259328998447 10.7430608145588 -0.44999999999989
vertex 274.434687124443 10.7430608145588 0.025
vertex 274.434687124443 10.7430608145588 -0.475
endloop
endfacet
facet normal 0.0 1.0 0.0
outer loop
vertex 274.434687124443 10.7430608145588 0.025
vertex 272.259328998447 10.7430608145588 -0.44999999999989
vertex 272.259328998447 10.7430608145588 0.0250000000000014
endloop
endfacet
facet normal 0.158596843989409 0.987343426106944 0.0
outer loop
vertex 258.439302493656 13.065224237171 0.0250000000000028
vertex 262.368497147034 12.4340782195153 -0.974999999999963
vertex 258.439302493656 13.065224237171 -0.974999999999963
endloop
endfacet
facet normal 0.158596843989409 0.987343426106944 0.0
outer loop
vertex 262.368497147034 12.4340782195153 -0.974999999999963
vertex 258.439302493656 13.065224237171 0.0250000000000028
vertex 262.368497147034 12.4340782195153 0.0250000000000028
endloop
endfacet
facet normal -0.0177704324903388 -0.999842093397306 2.83293139167152e-18
outer loop
vertex 275.288555466042 8.72788480844727 0.0250000000000028
vertex 274.434687124443 8.74306081455885 0.025
vertex 275.288555466042 8.72788480844727 -0.475000000000008
endloop
endfacet
facet normal -0.0177704324903388 -0.999842093397306 2.83293139167152e-18
outer loop
vertex 275.288555466042 8.72788480844727 0.0250000000000028
vertex 274.434687124443 8.74306081455885 0.025
vertex 275.288555466042 8.72788480844727 -0.475000000000008
endloop
endfacet
facet normal 0.0 0.0 -1.0
outer loop
vertex 262.368497147034 12.4340782195153 -0.974999999999963
vertex 260.497569135838 11.0066593038755 -0.974999999999963
vertex 258.439302493656 13.065224237171 -0.974999999999963
endloop
endfacet
facet normal 0.0 0.0 -1.0
outer loop
vertex 260.497569135838 11.0066593038755 -0.974999999999963
vertex 262.368497147034 12.4340782195153 -0.974999999999963
vertex 262.272622574508 8.55866495429575 -0.974999999999963
endloop
endfacet
facet normal 0.0 0.0 -1.0
outer loop
vertex 262.272622574508 8.55866495429575 -0.974999999999963
vertex 265.783852495599 6.44550993710051 -0.974999999999963
vertex 260.730324793453 7.27453690973794 -0.974999999999963
endloop
endfacet
facet normal 0.0 0.0 -1.0
outer loop
vertex 265.783852495599 6.44550993710051 -0.974999999999963
vertex 262.272622574508 8.55866495429575 -0.974999999999963
vertex 262.368497147034 12.4340782195153 -0.974999999999963
endloop
endfacet
facet normal 0.0 0.0 -1.0
outer loop
vertex 262.272622574508 8.55866495429575 -0.974999999999963
vertex 259.307609851424 10.5811953288583 -0.974999999999963
vertex 260.497569135838 11.0066593038755 -0.974999999999963
endloop
endfacet
facet normal -0.0114770632453506 -0.050285999686045 -0.998668911729427
outer loop
vertex 274.434687124443 10.7430608145588 -0.475
vertex 273.106565387172 10.5496911753377 -0.449999999999888
vertex 272.259328998447 10.7430608145588 -0.44999999999989
endloop
endfacet
facet normal -8.40831282216167e-31 -9.56605973673881e-15 1.0
outer loop
vertex 270.976747358268 10.8898794141588 0.0250000000000028
vertex 270.541839689161 10.7430608145588 0.0250000000000014
vertex 270.860008666878 10.7430608145588 0.0250000000000014
endloop
endfacet
facet normal -0.0 -2.69565011237103e-14 1.0
outer loop
vertex 272.259328998447 10.7430608145588 0.0250000000000014
vertex 272.24030436604 10.7951623646744 0.0250000000000028
vertex 272.198403372573 10.7430608145588 0.0250000000000014
endloop
endfacet
facet normal -2.00086284615252e-16 4.00486287593399e-16 1.0
outer loop
vertex 271.795323345992 6.25828500231836 0.0250000000000028
vertex 270.589967793445 8.74306081455885 0.0250000000000008
vertex 263.608450593671 0.061933276258853 0.0250000000000028
endloop
endfacet
facet normal -2.00086284615252e-16 4.00486287593399e-16 1.0
outer loop
vertex 270.589967793445 8.74306081455885 0.0250000000000008
vertex 271.795323345992 6.25828500231836 0.0250000000000028
vertex 272.989619454878 8.74306081455885 0.025000000000001
endloop
endfacet
facet normal -2.00086284615252e-16 4.00486287593399e-16 1.0
outer loop
vertex 272.989619454878 8.74306081455885 0.025000000000001
vertex 271.795323345992 6.25828500231836 0.0250000000000028
vertex 274.298328756911 5.15898193058363 0.0250000000000028
endloop
endfacet
facet normal -0.0188202416900636 -3.77315539349787e-15 -0.999822883566248
outer loop
vertex 274.434687124443 10.3696353841572 -0.474999999999999
vertex 273.106565387172 10.5496911753377 -0.449999999999888
vertex 274.434687124443 10.7430608145588 -0.475
endloop
endfacet
facet normal -0.0188202416900636 -3.77315539349787e-15 -0.999822883566248
outer loop
vertex 274.434687124443 10.3696353841572 -0.474999999999999
vertex 273.106565387172 10.5496911753377 -0.449999999999888
vertex 274.434687124443 10.7430608145588 -0.475
endloop
endfacet
facet normal -0.0114770632453506 -0.050285999686045 -0.998668911729427
outer loop
vertex 274.434687124443 10.7430608145588 -0.475
vertex 273.106565387172 10.5496911753377 -0.449999999999888
vertex 272.259328998447 10.7430608145588 -0.44999999999989
endloop
endfacet
facet normal 1.10241425126639e-16 4.85417197777026e-16 1.0
outer loop
vertex 279.863511921326 4.21574644643518 0.0250000000000028
vertex 276.743654997879 6.19840091057893 0.0250000000000028
vertex 275.165100318714 4.92610673278013 0.0250000000000028
endloop
endfacet
facet normal 1.10241425126639e-16 4.85417197777026e-16 1.0
outer loop
vertex 276.743654997879 6.19840091057893 0.0250000000000028
vertex 279.863511921326 4.21574644643518 0.0250000000000028
vertex 277.672099115479 8.74306081455885 0.0250000000000014
endloop
endfacet
facet normal 1.10241425126639e-16 4.85417197777026e-16 1.0
outer loop
vertex 276.743654997879 6.19840091057893 0.0250000000000028
vertex 275.288555466042 8.72788480844727 0.0250000000000028
vertex 274.091978206015 8.2614263514002 0.0250000000000028
endloop
endfacet
facet normal 1.10241425126639e-16 4.85417197777026e-16 1.0
outer loop
vertex 275.288555466042 8.72788480844727 0.0250000000000028
vertex 276.743654997879 6.19840091057893 0.0250000000000028
vertex 276.567794805319 10.7430608145588 0.025
endloop
endfacet
facet normal 1.10241425126639e-16 4.85417197777026e-16 1.0
outer loop
vertex 276.567794805319 10.7430608145588 0.025
vertex 276.743654997879 6.19840091057893 0.0250000000000028
vertex 277.672099115479 8.74306081455885 0.0250000000000014
endloop
endfacet
facet normal 1.10241425126639e-16 4.85417197777026e-16 1.0
outer loop
vertex 275.288555466042 8.72788480844727 0.0250000000000028
vertex 274.434687124443 10.7430608145588 0.025
vertex 274.434687124443 8.74306081455885 0.025
endloop
endfacet
facet normal 1.10241425126639e-16 4.85417197777026e-16 1.0
outer loop
vertex 274.434687124443 10.7430608145588 0.025
vertex 275.288555466042 8.72788480844727 0.0250000000000028
vertex 276.567794805319 10.7430608145588 0.025
endloop
endfacet
facet normal -1.0 2.33212020803208e-14 -1.25988608605171e-13
outer loop
vertex 268.434687124443 10.7430608145588 1.025
vertex 268.434687124443 8.74306081455885 0.025
vertex 268.434687124443 8.74306081455885 1.025
endloop
endfacet
facet normal -1.0 2.33212020803208e-14 -1.25988608605171e-13
outer loop
vertex 268.434687124443 8.74306081455885 0.025
vertex 268.434687124443 10.7430608145588 1.025
vertex 268.434687124443 10.7430608145588 0.025
endloop
endfacet
facet normal -7.91259571999757e-17 -3.47288892356542e-16 1.0
outer loop
vertex 276.567794805319 10.7430608145588 0.025
vertex 272.118601442386 14.7781313406128 0.0250000000000028
vertex 258.509045342144 19.7529644683777 0.0250000000000028
endloop
endfacet
facet normal -7.91259571999757e-17 -3.47288892356542e-16 1.0
outer loop
vertex 272.118601442386 14.7781313406128 0.0250000000000028
vertex 276.567794805319 10.7430608145588 0.025
vertex 278.883423264408 10.9426597285955 0.0250000000000028
endloop
endfacet
facet normal -7.91259571999757e-17 -3.47288892356542e-16 1.0
outer loop
vertex 272.118601442386 14.7781313406128 0.0250000000000028
vertex 289.383881147318 13.2980791415741 0.0250000000000028
vertex 258.509045342144 19.7529644683777 0.0250000000000028
endloop
endfacet
facet normal -7.91259571999757e-17 -3.47288892356542e-16 1.0
outer loop
vertex 289.383881147318 13.2980791415741 0.0250000000000028
vertex 272.118601442386 14.7781313406128 0.0250000000000028
vertex 278.098112739444 14.2409639334451 0.0250000000000028
endloop
endfacet
facet normal -7.91259571999757e-17 -3.47288892356542e-16 1.0
outer loop
vertex 289.383881147318 13.2980791415741 0.0250000000000028
vertex 278.098112739444 14.2409639334451 0.0250000000000028
vertex 279.176966107446 14.0731839780703 0.0250000000000028
endloop
endfacet
facet normal -0.00980524757320096 -0.00113965562158227 -0.999951277965628
outer loop
vertex 273.106565387172 10.5496911753377 -0.449999999999888
vertex 272.989619454878 8.74306081455885 -0.44999999999989
vertex 272.259328998447 10.7430608145588 -0.44999999999989
endloop
endfacet
facet normal -0.00980524757320096 -0.00113965562158227 -0.999951277965628
outer loop
vertex 272.989619454878 8.74306081455885 -0.44999999999989
vertex 273.106565387172 10.5496911753377 -0.449999999999888
vertex 275.288555466042 8.72788480844727 -0.475000000000008
endloop
endfacet
facet normal -4.28218285470769e-16 -1.96247451236808e-16 1.0
outer loop
vertex 277.672099115479 8.74306081455885 0.0250000000000014
vertex 278.883423264408 10.9426597285955 0.0250000000000028
vertex 276.567794805319 10.7430608145588 0.025
endloop
endfacet
facet normal -4.28218285470769e-16 -1.96247451236808e-16 1.0
outer loop
vertex 278.883423264408 10.9426597285955 0.0250000000000028
vertex 277.672099115479 8.74306081455885 0.0250000000000014
vertex 279.560468668855 8.74306081455885 0.025
endloop
endfacet
facet normal -4.28218285470769e-16 -1.96247451236808e-16 1.0
outer loop
vertex 278.883423264408 10.9426597285955 0.0250000000000028
vertex 279.560468668855 8.74306081455885 0.025
vertex 279.176966107446 14.0731839780703 0.0250000000000028
endloop
endfacet
facet normal -4.28218285470769e-16 -1.96247451236808e-16 1.0
outer loop
vertex 279.176966107446 14.0731839780703 0.0250000000000028
vertex 279.560468668855 8.74306081455885 0.025
vertex 286.666636956008 0.061933276258853 0.0250000000000028
endloop
endfacet
facet normal -4.28218285470769e-16 -1.96247451236808e-16 1.0
outer loop
vertex 286.666636956008 0.061933276258853 0.0250000000000028
vertex 279.560468668855 8.74306081455885 0.025
vertex 280.924947795561 3.91508866817267 0.0250000000000028
endloop
endfacet
facet normal -4.28218285470769e-16 -1.96247451236808e-16 1.0
outer loop
vertex 279.176966107446 14.0731839780703 0.0250000000000028
vertex 278.098112739444 14.2409639334451 0.0250000000000028
vertex 278.883423264408 10.9426597285955 0.0250000000000028
endloop
endfacet
facet normal -0.563513847337088 -0.826106617731242 5.96359953243679e-16
outer loop
vertex 262.272622574508 8.55866495429575 -0.974999999999963
vertex 262.002299775582 8.74306081455885 -0.424999999999617
vertex 259.307609851424 10.5811953288583 -0.974999999999963
endloop
endfacet
facet normal -0.563513847337088 -0.826106617731242 5.96359953243679e-16
outer loop
vertex 262.002299775582 8.74306081455885 -0.424999999999617
vertex 262.272622574508 8.55866495429575 -0.974999999999963
vertex 262.272622574508 8.55866495429575 0.0250000000000028
endloop
endfacet
facet normal -0.563513847337088 -0.826106617731242 5.96359953243679e-16
outer loop
vertex 262.002299775582 8.74306081455885 -0.424999999999617
vertex 262.272622574508 8.55866495429575 0.0250000000000028
vertex 262.002299775582 8.74306081455885 0.0250000000000014
endloop
endfacet
facet normal -0.563513847337088 -0.826106617731242 5.96359953243679e-16
outer loop
vertex 259.307609851424 10.5811953288583 -0.424999999999616
vertex 259.307609851424 10.5811953288583 -0.974999999999963
vertex 262.002299775582 8.74306081455885 -0.424999999999617
endloop
endfacet
facet normal -0.161885282964115 -0.986809584043258 0.0
outer loop
vertex 265.783852495599 6.44550993710051 0.0250000000000028
vertex 260.730324793453 7.27453690973794 -0.974999999999963
vertex 265.783852495599 6.44550993710051 -0.974999999999963
endloop
endfacet
facet normal -0.161885282964115 -0.986809584043258 0.0
outer loop
vertex 260.730324793453 7.27453690973794 -0.974999999999963
vertex 265.783852495599 6.44550993710051 0.0250000000000028
vertex 260.730324793453 7.27453690973794 0.0250000000000028
endloop
endfacet
facet normal 0.641599515990075 0.767039804104912 0.0
outer loop
vertex 252.463197662095 15.3744408139381 0.0250000000000028
vertex 255.715729912453 12.6538217451445 -0.974999999999955
vertex 252.463197662095 15.3744408139381 -0.974999999999955
endloop
endfacet
facet normal 0.641599515990075 0.767039804104912 0.0
outer loop
vertex 255.715729912453 12.6538217451445 -0.974999999999955
vertex 252.463197662095 15.3744408139381 0.0250000000000028
vertex 255.715729912453 12.6538217451445 0.0250000000000028
endloop
endfacet
facet normal 0.0 0.0 -1.0
outer loop
vertex 257.831916033446 13.0378246228355 -0.974999999999955
vertex 256.99430788515 11.26696876357 -0.974999999999955
vertex 255.715729912453 12.6538217451445 -0.974999999999955
endloop
endfacet
facet normal 0.0 0.0 -1.0
outer loop
vertex 255.715729912453 12.6538217451445 -0.974999999999955
vertex 260.378905021064 1.016474580516 -0.974999999999955
vertex 252.463197662095 15.3744408139381 -0.974999999999955
endloop
endfacet
facet normal 0.0 0.0 -1.0
outer loop
vertex 260.378905021064 1.016474580516 -0.974999999999955
vertex 255.715729912453 12.6538217451445 -0.974999999999955
vertex 256.99430788515 11.26696876357 -0.974999999999955
endloop
endfacet
facet normal 0.94957531720401 0.31353901983151 0.0
outer loop
vertex 256.99430788515 11.26696876357 -0.974999999999955
vertex 260.378905021064 1.016474580516 0.0250000000000028
vertex 260.378905021064 1.016474580516 -0.974999999999955
endloop
endfacet
facet normal 0.94957531720401 0.31353901983151 0.0
outer loop
vertex 260.378905021064 1.016474580516 0.0250000000000028
vertex 256.99430788515 11.26696876357 -0.974999999999955
vertex 257.827673717371 8.74306081455885 -0.424999999999619
endloop
endfacet
facet normal 0.94957531720401 0.31353901983151 0.0
outer loop
vertex 257.827673717371 8.74306081455885 -0.424999999999619
vertex 256.99430788515 11.26696876357 -0.974999999999955
vertex 257.16729635888 10.7430608145588 -0.424999999999619
endloop
endfacet
facet normal 0.94957531720401 0.31353901983151 0.0
outer loop
vertex 257.16729635888 10.7430608145588 -0.424999999999619
vertex 256.99430788515 11.26696876357 -0.974999999999955
vertex 257.16729635888 10.7430608145588 0.025
endloop
endfacet
facet normal 0.94957531720401 0.31353901983151 0.0
outer loop
vertex 257.16729635888 10.7430608145588 0.025
vertex 256.99430788515 11.26696876357 -0.974999999999955
vertex 256.99430788515 11.26696876357 0.0250000000000028
endloop
endfacet
facet normal 0.94957531720401 0.31353901983151 0.0
outer loop
vertex 257.827673717371 8.74306081455885 0.025
vertex 260.378905021064 1.016474580516 0.0250000000000028
vertex 257.827673717371 8.74306081455885 -0.424999999999619
endloop
endfacet
facet normal -0.8757306022382 -0.482800074879364 0.0
outer loop
vertex 252.463197662095 15.3744408139381 0.0250000000000028
vertex 260.378905021064 1.016474580516 -0.974999999999955
vertex 260.378905021064 1.016474580516 0.0250000000000028
endloop
endfacet
facet normal -0.8757306022382 -0.482800074879364 0.0
outer loop
vertex 260.378905021064 1.016474580516 -0.974999999999955
vertex 252.463197662095 15.3744408139381 0.0250000000000028
vertex 252.463197662095 15.3744408139381 -0.974999999999955
endloop
endfacet
facet normal 0.903978302410323 -0.427578330568038 0.0
outer loop
vertex 257.831916033446 13.0378246228355 -0.974999999999955
vertex 256.99430788515 11.26696876357 0.0250000000000028
vertex 256.99430788515 11.26696876357 -0.974999999999955
endloop
endfacet
facet normal 0.903978302410323 -0.427578330568038 0.0
outer loop
vertex 256.99430788515 11.26696876357 0.0250000000000028
vertex 257.831916033446 13.0378246228355 -0.974999999999955
vertex 257.831916033446 13.0378246228355 0.0250000000000028
endloop
endfacet
facet normal 0.0 -1.0 0.0
outer loop
vertex 274.434687124443 8.74306081455885 1.025
vertex 272.989619454878 8.74306081455885 0.025000000000001
vertex 274.434687124443 8.74306081455885 0.025
endloop
endfacet
facet normal 0.0 -1.0 0.0
outer loop
vertex 272.989619454878 8.74306081455885 0.025000000000001
vertex 274.434687124443 8.74306081455885 1.025
vertex 269.269764764439 8.74306081455885 0.025000000000001
endloop
endfacet
facet normal 0.0 -1.0 0.0
outer loop
vertex 269.269764764439 8.74306081455885 0.025000000000001
vertex 268.434687124443 8.74306081455885 1.025
vertex 268.434687124443 8.74306081455885 0.025
endloop
endfacet
facet normal 0.0 -1.0 0.0
outer loop
vertex 268.434687124443 8.74306081455885 1.025
vertex 269.269764764439 8.74306081455885 0.025000000000001
vertex 274.434687124443 8.74306081455885 1.025
endloop
endfacet
facet normal 0.0 -1.0 0.0
outer loop
vertex 270.589967793445 8.74306081455885 0.0250000000000008
vertex 269.269764764439 8.74306081455885 -0.449999999999895
vertex 270.589967793445 8.74306081455885 -0.449999999999895
endloop
endfacet
facet normal 0.0 -1.0 0.0
outer loop
vertex 269.269764764439 8.74306081455885 -0.449999999999895
vertex 270.589967793445 8.74306081455885 0.0250000000000008
vertex 269.269764764439 8.74306081455885 0.025000000000001
endloop
endfacet
facet normal 0.0 -1.0 0.0
outer loop
vertex 269.269764764439 8.74306081455885 0.025000000000001
vertex 270.589967793445 8.74306081455885 0.0250000000000008
vertex 272.989619454878 8.74306081455885 0.025000000000001
endloop
endfacet
facet normal 4.82085237655324e-17 -2.91358511257711e-17 1.0
outer loop
vertex 257.827673717371 8.74306081455885 0.025
vertex 259.760323474305 10.7430608145588 0.0250000000000014
vertex 257.16729635888 10.7430608145588 0.025
endloop
endfacet
facet normal 4.82085237655324e-17 -2.91358511257711e-17 1.0
outer loop
vertex 259.760323474305 10.7430608145588 0.0250000000000014
vertex 257.827673717371 8.74306081455885 0.025
vertex 262.002299775582 8.74306081455885 0.0250000000000014
endloop
endfacet
facet normal 4.82085237655324e-17 -2.91358511257711e-17 1.0
outer loop
vertex 259.760323474305 10.7430608145588 0.0250000000000014
vertex 262.002299775582 8.74306081455885 0.0250000000000014
vertex 260.497569135838 11.0066593038755 0.0250000000000028
endloop
endfacet
facet normal 4.82085237655324e-17 -2.91358511257711e-17 1.0
outer loop
vertex 265.783852495599 6.44550993710051 0.0250000000000028
vertex 262.272622574508 8.55866495429575 0.0250000000000028
vertex 260.730324793453 7.27453690973794 0.0250000000000028
endloop
endfacet
facet normal 4.82085237655324e-17 -2.91358511257711e-17 1.0
outer loop
vertex 262.272622574508 8.55866495429575 0.0250000000000028
vertex 265.783852495599 6.44550993710051 0.0250000000000028
vertex 263.332905510799 10.7430608145588 0.0250000000000014
endloop
endfacet
facet normal 4.82085237655324e-17 -2.91358511257711e-17 1.0
outer loop
vertex 262.272622574508 8.55866495429575 0.0250000000000028
vertex 263.332905510799 10.7430608145588 0.0250000000000014
vertex 262.368497147034 12.4340782195153 0.0250000000000028
endloop
endfacet
facet normal 4.82085237655324e-17 -2.91358511257711e-17 1.0
outer loop
vertex 263.332905510799 10.7430608145588 0.0250000000000014
vertex 265.783852495599 6.44550993710051 0.0250000000000028
vertex 264.473530510799 8.74306081455885 0.025000000000001
endloop
endfacet
facet normal 4.82085237655324e-17 -2.91358511257711e-17 1.0
outer loop
vertex 263.332905510799 10.7430608145588 0.0250000000000014
vertex 264.473530510799 8.74306081455885 0.025000000000001
vertex 264.33737780689 10.7430608145588 0.0250000000000014
endloop
endfacet
facet normal 4.82085237655324e-17 -2.91358511257711e-17 1.0
outer loop
vertex 269.269764764439 8.74306081455885 0.025000000000001
vertex 268.434687124443 8.74306081455885 0.025
vertex 267.163595881703 6.09419810927741 0.0250000000000028
endloop
endfacet
facet normal 4.82085237655324e-17 -2.91358511257711e-17 1.0
outer loop
vertex 264.33737780689 10.7430608145588 0.0250000000000014
vertex 266.77328696907 10.7430608145588 0.0250000000000014
vertex 259.328569540028 18.9820789417296 0.0250000000000028
endloop
endfacet
facet normal 4.82085237655324e-17 -2.91358511257711e-17 1.0
outer loop
vertex 266.77328696907 10.7430608145588 0.0250000000000014
vertex 264.33737780689 10.7430608145588 0.0250000000000014
vertex 264.473530510799 8.74306081455885 0.025000000000001
endloop
endfacet
facet normal 4.82085237655324e-17 -2.91358511257711e-17 1.0
outer loop
vertex 266.77328696907 10.7430608145588 0.0250000000000014
vertex 264.473530510799 8.74306081455885 0.025000000000001
vertex 265.553252851598 8.74306081455885 0.025000000000001
endloop
endfacet
facet normal 4.82085237655324e-17 -2.91358511257711e-17 1.0
outer loop
vertex 266.77328696907 10.7430608145588 0.0250000000000014
vertex 265.553252851598 8.74306081455885 0.025000000000001
vertex 267.163595881703 6.09419810927741 0.0250000000000028
endloop
endfacet
facet normal 4.82085237655324e-17 -2.91358511257711e-17 1.0
outer loop
vertex 266.77328696907 10.7430608145588 0.0250000000000014
vertex 267.163595881703 6.09419810927741 0.0250000000000028
vertex 268.434687124443 10.7430608145588 0.025
endloop
endfacet
facet normal 4.82085237655324e-17 -2.91358511257711e-17 1.0
outer loop
vertex 268.434687124443 10.7430608145588 0.025
vertex 267.163595881703 6.09419810927741 0.0250000000000028
vertex 268.434687124443 8.74306081455885 0.025
endloop
endfacet
facet normal 4.82085237655324e-17 -2.91358511257711e-17 1.0
outer loop
vertex 260.497569135838 11.0066593038755 0.0250000000000028
vertex 262.368497147034 12.4340782195153 0.0250000000000028
vertex 258.439302493656 13.065224237171 0.0250000000000028
endloop
endfacet
facet normal 4.82085237655324e-17 -2.91358511257711e-17 1.0
outer loop
vertex 262.368497147034 12.4340782195153 0.0250000000000028
vertex 260.497569135838 11.0066593038755 0.0250000000000028
vertex 262.002299775582 8.74306081455885 0.0250000000000014
endloop
endfacet
facet normal 4.82085237655324e-17 -2.91358511257711e-17 1.0
outer loop
vertex 262.368497147034 12.4340782195153 0.0250000000000028
vertex 262.002299775582 8.74306081455885 0.0250000000000014
vertex 262.272622574508 8.55866495429575 0.0250000000000028
endloop
endfacet
facet normal -0.363205591841883 0.931709020056578 -7.98710828924116e-18
outer loop
vertex 274.091978206015 8.2614263514002 0.0250000000000028
vertex 275.288555466042 8.72788480844727 -0.974999999999989
vertex 274.091978206015 8.2614263514002 -0.974999999999989
endloop
endfacet
facet normal -0.363205591841883 0.931709020056578 -7.98710828924116e-18
outer loop
vertex 275.288555466042 8.72788480844727 -0.974999999999989
vertex 274.091978206015 8.2614263514002 0.0250000000000028
vertex 275.288555466042 8.72788480844727 -0.475000000000008
endloop
endfacet
facet normal -0.363205591841883 0.931709020056578 -7.98710828924116e-18
outer loop
vertex 275.288555466042 8.72788480844727 -0.475000000000008
vertex 274.091978206015 8.2614263514002 0.0250000000000028
vertex 275.288555466042 8.72788480844727 0.0250000000000028
endloop
endfacet
facet normal -0.149492618926895 -0.988762841578494 0.0
outer loop
vertex 279.863511921326 4.21574644643518 0.0250000000000028
vertex 275.165100318714 4.92610673278013 -0.974999999999989
vertex 279.863511921326 4.21574644643518 -0.974999999999989
endloop
endfacet
facet normal -0.149492618926895 -0.988762841578494 0.0
outer loop
vertex 275.165100318714 4.92610673278013 -0.974999999999989
vertex 279.863511921326 4.21574644643518 0.0250000000000028
vertex 275.165100318714 4.92610673278013 0.0250000000000028
endloop
endfacet
facet normal -0.178544163430407 0.983931898916249 0.0
outer loop
vertex 255.715729912453 12.6538217451445 0.0250000000000028
vertex 257.831916033446 13.0378246228355 -0.974999999999955
vertex 255.715729912453 12.6538217451445 -0.974999999999955
endloop
endfacet
facet normal -0.178544163430407 0.983931898916249 0.0
outer loop
vertex 257.831916033446 13.0378246228355 -0.974999999999955
vertex 255.715729912453 12.6538217451445 0.0250000000000028
vertex 257.831916033446 13.0378246228355 0.0250000000000028
endloop
endfacet
facet normal -0.0 -1.0 0.0
outer loop
vertex 272.989619454878 8.74306081455885 0.025000000000001
vertex 272.989619454878 8.74306081455885 -0.44999999999989
vertex 274.434687124443 8.74306081455885 0.025
endloop
endfacet
facet normal -0.00638858086782747 -0.999790698953573 0.0194356456136837
outer loop
vertex 274.434687124443 8.74306081455885 0.025
vertex 272.989619454878 8.74306081455885 -0.44999999999989
vertex 275.288555466042 8.72788480844727 -0.475000000000008
endloop
endfacet
facet normal 0.0 0.0 1.0
outer loop
vertex 274.434687124443 8.74306081455885 1.025
vertex 268.434687124443 10.7430608145588 1.025
vertex 268.434687124443 8.74306081455885 1.025
endloop
endfacet
facet normal 0.0 0.0 1.0
outer loop
vertex 268.434687124443 10.7430608145588 1.025
vertex 274.434687124443 8.74306081455885 1.025
vertex 274.434687124443 10.7430608145588 1.025
endloop
endfacet
facet normal 0.13434278356956 0.990934920417472 4.10844749790405e-17
outer loop
vertex 277.056840029303 10.0141455200645 -0.474999999999997
vertex 277.056840029303 10.0141455200645 -0.974999999999989
vertex 274.434687124443 10.3696353841572 -0.474999999999999
endloop
endfacet
facet normal 0.13434278356956 0.990934920417472 4.10844749790405e-17
outer loop
vertex 273.106565387172 10.5496911753377 -0.449999999999888
vertex 277.056840029303 10.0141455200645 -0.974999999999989
vertex 273.106565387172 10.5496911753377 -0.974999999999989
endloop
endfacet
facet normal 0.13434278356956 0.990934920417472 4.10844749790405e-17
outer loop
vertex 277.056840029303 10.0141455200645 -0.974999999999989
vertex 273.106565387172 10.5496911753377 -0.449999999999888
vertex 274.434687124443 10.3696353841572 -0.474999999999999
endloop
endfacet
facet normal 0.900098689272341 0.435686067679715 -6.64496004430627e-16
outer loop
vertex 277.056840029303 10.0141455200645 -0.974999999999989
vertex 279.863511921326 4.21574644643518 0.0250000000000028
vertex 279.863511921326 4.21574644643518 -0.974999999999989
endloop
endfacet
facet normal 0.900098689272341 0.435686067679715 -6.64496004430627e-16
outer loop
vertex 279.863511921326 4.21574644643518 0.0250000000000028
vertex 277.056840029303 10.0141455200645 -0.974999999999989
vertex 277.672099115479 8.74306081455885 -0.474999999999999
endloop
endfacet
facet normal 0.900098689272341 0.435686067679715 -6.64496004430627e-16
outer loop
vertex 277.672099115479 8.74306081455885 -0.474999999999999
vertex 277.056840029303 10.0141455200645 -0.974999999999989
vertex 277.056840029303 10.0141455200645 -0.474999999999997
endloop
endfacet
facet normal 0.900098689272341 0.435686067679715 -6.64496004430627e-16
outer loop
vertex 277.672099115479 8.74306081455885 0.0250000000000014
vertex 279.863511921326 4.21574644643518 0.0250000000000028
vertex 277.672099115479 8.74306081455885 -0.474999999999999
endloop
endfacet
facet normal -0.614053765392468 -0.7892641973429 0.0
outer loop
vertex 276.743654997879 6.19840091057893 0.0250000000000028
vertex 274.091978206015 8.2614263514002 -0.974999999999989
vertex 276.743654997879 6.19840091057893 -0.974999999999989
endloop
endfacet
facet normal -0.614053765392468 -0.7892641973429 0.0
outer loop
vertex 274.091978206015 8.2614263514002 -0.974999999999989
vertex 276.743654997879 6.19840091057893 0.0250000000000028
vertex 274.091978206015 8.2614263514002 0.0250000000000028
endloop
endfacet
facet normal 0.0 0.0 -1.0
outer loop
vertex 277.056840029303 10.0141455200645 -0.974999999999989
vertex 275.288555466042 8.72788480844727 -0.974999999999989
vertex 273.106565387172 10.5496911753377 -0.974999999999989
endloop
endfacet
facet normal 0.0 0.0 -1.0
outer loop
vertex 275.288555466042 8.72788480844727 -0.974999999999989
vertex 277.056840029303 10.0141455200645 -0.974999999999989
vertex 276.743654997879 6.19840091057893 -0.974999999999989
endloop
endfacet
facet normal 0.0 0.0 -1.0
outer loop
vertex 276.743654997879 6.19840091057893 -0.974999999999989
vertex 279.863511921326 4.21574644643518 -0.974999999999989
vertex 275.165100318714 4.92610673278013 -0.974999999999989
endloop
endfacet
facet normal 0.0 0.0 -1.0
outer loop
vertex 279.863511921326 4.21574644643518 -0.974999999999989
vertex 276.743654997879 6.19840091057893 -0.974999999999989
vertex 277.056840029303 10.0141455200645 -0.974999999999989
endloop
endfacet
facet normal 0.0 0.0 -1.0
outer loop
vertex 276.743654997879 6.19840091057893 -0.974999999999989
vertex 274.091978206015 8.2614263514002 -0.974999999999989
vertex 275.288555466042 8.72788480844727 -0.974999999999989
endloop
endfacet
facet normal -0.640906897758048 -0.767618621716641 9.30360145122031e-17
outer loop
vertex 275.288555466042 8.72788480844727 -0.475000000000008
vertex 273.106565387172 10.5496911753377 -0.974999999999989
vertex 275.288555466042 8.72788480844727 -0.974999999999989
endloop
endfacet
facet normal -0.640906897758048 -0.767618621716641 9.30360145122031e-17
outer loop
vertex 273.106565387172 10.5496911753377 -0.974999999999989
vertex 275.288555466042 8.72788480844727 -0.475000000000008
vertex 273.106565387172 10.5496911753377 -0.449999999999888
endloop
endfacet
endsolid Pedal Case
