solid Pedal Case
facet normal 0.990575888636372 0.00127768126713472 0.136959031768049
outer loop
vertex 41.9751283860388 42.0032997511987 58.8044522442298
vertex 41.836420861291 45.6724547449546 59.7733984741676
vertex 41.83641886815 41.673034456354 59.8049545883062
endloop
endfacet
facet normal 0.990575888636372 0.00127768126713472 0.136959031768049
outer loop
vertex 41.836420861291 45.6724547449546 59.7733984741676
vertex 41.9751283860388 42.0032997511987 58.8044522442298
vertex 41.9747360230072 45.9760100418207 58.7644175100729
endloop
endfacet
facet normal 0.916752044218785 0.00457309707761386 0.399430564934379
outer loop
vertex 42.3818041152895 42.3110580119891 57.8721324814939
vertex 41.9747360230072 45.9760100418207 58.7644175100729
vertex 41.9751283860388 42.0032997511987 58.8044522442298
endloop
endfacet
facet normal 0.916752044218785 0.00457309707761386 0.399430564934379
outer loop
vertex 41.9747360230072 45.9760100418207 58.7644175100729
vertex 42.3818041152895 42.3110580119891 57.8721324814939
vertex 42.3810441349774 46.2589084565787 57.8240975149669
endloop
endfacet
facet normal -0.777655420398091 0.00840799444050043 0.628634514447749
outer loop
vertex 49.4318919965703 46.2596686388077 57.8215707615014
vertex 48.7857277673765 42.5753360218465 57.0715313511978
vertex 49.4326554291041 42.311058011989 57.872132481494
endloop
endfacet
facet normal -0.777655420398091 0.00840799444050043 0.628634514447749
outer loop
vertex 48.7857277673765 42.5753360218465 57.0715313511978
vertex 49.4318919965703 46.2596686388077 57.8215707615014
vertex 48.784649142459 46.5024916159656 57.0144566569984
endloop
endfacet
facet normal -2.1244945354954e-18 1.47971912500822e-15 -1.0
outer loop
vertex -16.8 125.76110190616 49.4744969043953
vertex -24.8 48.7719957086194 49.4744969043952
vertex -24.8 125.76110190616 49.4744969043953
endloop
endfacet
facet normal -2.1244945354954e-18 1.47971912500822e-15 -1.0
outer loop
vertex -24.8 48.7719957086194 49.4744969043952
vertex -16.8 125.76110190616 49.4744969043953
vertex -16.8 48.7719957086194 49.4744969043952
endloop
endfacet
facet normal -0.990521723442757 0.00128212357399173 0.137350178547872
outer loop
vertex 49.9780386831026 45.6733325277838 59.7704808305805
vertex 49.8393311583548 42.0032997511987 58.8044522442298
vertex 49.9780406762437 41.673034456354 59.8049545883062
endloop
endfacet
facet normal -0.990521723442757 0.00128212357399173 0.137350178547872
outer loop
vertex 49.8393311583548 42.0032997511987 58.8044522442298
vertex 49.9780386831026 45.6733325277838 59.7704808305805
vertex 49.8389349448703 45.9768579149252 58.7615992827802
endloop
endfacet
facet normal 0.733886127161504 0.423567738758307 -0.531038155920139
outer loop
vertex 99.4641016151378 131.152901832822 59.1444761976021
vertex 99.8637033051563 130.188204293018 59.1515969265134
vertex 94.8823889660322 126.715854986522 49.4744969043953
endloop
endfacet
facet normal -0.121317961519987 -0.924070266924612 -0.362458403128567
outer loop
vertex -26.0 41.673034456354 59.8049545883062
vertex -22.0677105278659 45.2088087040264 49.4744969043952
vertex -21.1135999999999 45.0831130764175 49.4744969043952
endloop
endfacet
facet normal 0.999945976760497 4.74776445131129e-05 0.0103942920090497
outer loop
vertex 37.0865911529398 48.253233791258 51.1987985552601
vertex 37.0000000000001 129.152956314292 59.1592384098885
vertex 37.0000000000001 45.6729254934141 59.7754301637332
endloop
endfacet
facet normal 0.999945976760497 4.74776445131129e-05 0.0103942920090497
outer loop
vertex 37.0000000000001 129.152956314292 59.1592384098885
vertex 37.0865911529398 48.253233791258 51.1987985552601
vertex 37.0857725369531 126.355572106978 51.1718840958475
endloop
endfacet
facet normal -6.50430995053889e-18 4.59528248786256e-15 -1.0
outer loop
vertex -24.674388966032 126.715854986522 49.4744969043953
vertex -16.8 125.76110190616 49.4744969043953
vertex -24.8 125.76110190616 49.4744969043953
endloop
endfacet
facet normal -6.50430995053889e-18 4.59528248786256e-15 -1.0
outer loop
vertex -16.8 125.76110190616 49.4744969043953
vertex -24.674388966032 126.715854986522 49.4744969043953
vertex -24.3061160485109 127.605543222261 49.4744969043952
endloop
endfacet
facet normal -6.50430995053889e-18 4.59528248786256e-15 -1.0
outer loop
vertex -16.8 125.76110190616 49.4744969043953
vertex -24.3061160485109 127.605543222261 49.4744969043952
vertex -23.7202784381661 128.369535830391 49.4744969043953
endloop
endfacet
facet normal -6.50430995053889e-18 4.59528248786256e-15 -1.0
outer loop
vertex -16.8 125.76110190616 49.4744969043953
vertex -23.7202784381661 128.369535830391 49.4744969043953
vertex -22.9567999999999 128.955767977226 49.4744969043953
endloop
endfacet
facet normal -6.50430995053889e-18 4.59528248786256e-15 -1.0
outer loop
vertex -16.8 125.76110190616 49.4744969043953
vertex -22.9567999999999 128.955767977226 49.4744969043953
vertex -22.0677105278659 129.324288910753 49.4744969043953
endloop
endfacet
facet normal -6.50430995053889e-18 4.59528248786256e-15 -1.0
outer loop
vertex -16.8 125.76110190616 49.4744969043953
vertex -22.0677105278659 129.324288910753 49.4744969043953
vertex -21.1135999999999 129.449984538362 49.4744969043953
endloop
endfacet
facet normal -6.50430995053889e-18 4.59528248786256e-15 -1.0
outer loop
vertex -16.8 125.76110190616 49.4744969043953
vertex -21.1135999999999 129.449984538362 49.4744969043953
vertex 91.3216000000001 129.449984538362 49.4744969043953
endloop
endfacet
facet normal -6.50430995053889e-18 4.59528248786256e-15 -1.0
outer loop
vertex -16.8 125.76110190616 49.4744969043953
vertex 91.3216000000001 129.449984538362 49.4744969043953
vertex 87.0080000000002 125.76110190616 49.4744969043953
endloop
endfacet
facet normal -6.50430995053889e-18 4.59528248786256e-15 -1.0
outer loop
vertex 87.0080000000002 125.76110190616 49.4744969043953
vertex 91.3216000000001 129.449984538362 49.4744969043953
vertex 95.0080000000002 125.76110190616 49.4744969043953
endloop
endfacet
facet normal -6.50430995053889e-18 4.59528248786256e-15 -1.0
outer loop
vertex 95.0080000000002 125.76110190616 49.4744969043953
vertex 91.3216000000001 129.449984538362 49.4744969043953
vertex 92.2757105278662 129.324288910753 49.4744969043953
endloop
endfacet
facet normal -6.50430995053889e-18 4.59528248786256e-15 -1.0
outer loop
vertex 95.0080000000002 125.76110190616 49.4744969043953
vertex 92.2757105278662 129.324288910753 49.4744969043953
vertex 93.1648000000001 128.955767977226 49.4744969043953
endloop
endfacet
facet normal -6.50430995053889e-18 4.59528248786256e-15 -1.0
outer loop
vertex 95.0080000000002 125.76110190616 49.4744969043953
vertex 93.1648000000001 128.955767977226 49.4744969043953
vertex 93.9282784381663 128.369535830391 49.4744969043953
endloop
endfacet
facet normal -6.50430995053889e-18 4.59528248786256e-15 -1.0
outer loop
vertex 95.0080000000002 125.76110190616 49.4744969043953
vertex 93.9282784381663 128.369535830391 49.4744969043953
vertex 94.5141160485112 127.605543222261 49.4744969043952
endloop
endfacet
facet normal -6.50430995053889e-18 4.59528248786256e-15 -1.0
outer loop
vertex 95.0080000000002 125.76110190616 49.4744969043953
vertex 94.5141160485112 127.605543222261 49.4744969043952
vertex 94.8823889660322 126.715854986522 49.4744969043953
endloop
endfacet
facet normal -0.916596033205759 0.00457870296256485 0.399788378258609
outer loop
vertex 49.8389349448703 45.9768579149252 58.7615992827802
vertex 49.4326554291041 42.311058011989 57.872132481494
vertex 49.8393311583548 42.0032997511987 58.8044522442298
endloop
endfacet
facet normal -0.916596033205759 0.00457870296256485 0.399788378258609
outer loop
vertex 49.4326554291041 42.311058011989 57.872132481494
vertex 49.8389349448703 45.9768579149252 58.7615992827802
vertex 49.4318919965703 46.2596686388077 57.8215707615014
endloop
endfacet
facet normal -0.588506849823668 0.0120949555715161 0.808401756406025
outer loop
vertex 47.9426352242202 42.7781236711396 56.4572084973152
vertex 48.784649142459 46.5024916159656 57.0144566569984
vertex 47.9413149134247 46.6887788617895 56.3952604616743
endloop
endfacet
facet normal -0.588506849823668 0.0120949555715161 0.808401756406025
outer loop
vertex 48.784649142459 46.5024916159656 57.0144566569984
vertex 47.9426352242202 42.7781236711396 56.4572084973152
vertex 48.7857277673765 42.5753360218465 57.0715313511978
endloop
endfacet
facet normal 5.48064222337555e-19 0.000344605019451341 0.999999940623689
outer loop
vertex 37.0865911529398 48.253233791258 51.1987985552601
vertex 87.8829182262557 126.355572106978 51.1718840958475
vertex 37.0857725369531 126.355572106978 51.1718840958475
endloop
endfacet
facet normal 5.48064222337555e-19 0.000344605019451341 0.999999940623689
outer loop
vertex 87.8829182262557 126.355572106978 51.1718840958475
vertex 37.0865911529398 48.253233791258 51.1987985552601
vertex 87.8436246588935 48.253233791258 51.1987985552601
endloop
endfacet
facet normal 6.03310784009041e-19 0.000344605019451341 0.999999940623689
outer loop
vertex -17.6704423530139 48.253233791258 51.1987985552601
vertex 33.0857725369531 126.355572106978 51.1718840958475
vertex -17.7113731523495 126.355572106978 51.1718840958475
endloop
endfacet
facet normal 6.03310784009041e-19 0.000344605019451341 0.999999940623689
outer loop
vertex 33.0857725369531 126.355572106978 51.1718840958475
vertex -17.6704423530139 48.253233791258 51.1987985552601
vertex 33.0857725369531 48.253233791258 51.1987985552601
endloop
endfacet
facet normal 0.89229491073085 0.00333222235696604 0.451440681128749
outer loop
vertex -22.0 129.152956314292 59.1592384098885
vertex -22.0 45.6729254934141 59.7754301637332
vertex -17.6704423530139 48.253233791258 51.1987985552601
endloop
endfacet
facet normal 1.68285963723817e-18 0.957601084599318 0.288097488316387
outer loop
vertex -22.0 45.6729254934141 59.7754301637332
vertex 33.0857725369531 48.253233791258 51.1987985552601
vertex -17.6704423530139 48.253233791258 51.1987985552601
endloop
endfacet
facet normal 1.68285963723817e-18 0.957601084599318 0.288097488316387
outer loop
vertex 33.0857725369531 48.253233791258 51.1987985552601
vertex -22.0 45.6729254934141 59.7754301637332
vertex 33.0000000000001 45.6729254934141 59.7754301637332
endloop
endfacet
facet normal 0.881125805432006 0.00062472564656612 0.472881512347085
outer loop
vertex -22.0 129.152956314292 59.1592384098885
vertex -17.6704423530139 48.253233791258 51.1987985552601
vertex -17.7113731523495 126.355572106978 51.1718840958475
endloop
endfacet
facet normal 0.879737751892467 -0.115741725173576 -0.461156525432562
outer loop
vertex 95.0080000000002 48.7719957086194 49.4744969043952
vertex 100.0 45.6729254934141 59.7754301637332
vertex 94.8823889660322 47.8172426282576 49.4744969043952
endloop
endfacet
facet normal -0.746420128561506 -0.429127896545217 -0.508631733265731
outer loop
vertex -24.3061160485109 46.9275543925182 49.4744969043952
vertex -23.7202784381661 46.1635617843881 49.4744969043952
vertex -28.8284271247462 42.8445754171016 59.7963070845594
endloop
endfacet
facet normal 0.752463540352824 -0.431812951082924 -0.497329061805913
outer loop
vertex 94.5141160485112 46.9275543925182 49.4744969043952
vertex 99.4641016151378 43.6729799748841 59.7901923760196
vertex 98.8284271247463 42.8445754171016 59.7963070845593
endloop
endfacet
facet normal 0.752463540352824 -0.431812951082924 -0.497329061805913
outer loop
vertex 94.5141160485112 46.9275543925182 49.4744969043952
vertex 98.8284271247463 42.8445754171016 59.7963070845593
vertex 93.9282784381663 46.1635617843881 49.4744969043952
endloop
endfacet
facet normal 0.752463540352824 -0.431812951082924 -0.497329061805913
outer loop
vertex 94.5141160485112 46.9275543925182 49.4744969043952
vertex 99.8637033051563 44.637677514688 59.7830716471084
vertex 99.4641016151378 43.6729799748841 59.7901923760196
endloop
endfacet
facet normal 0.618597962938163 -0.613422794500112 -0.490967448448906
outer loop
vertex 98.8284271247463 42.8445754171016 59.7963070845593
vertex 93.1648000000001 45.5773296375533 49.4744969043953
vertex 93.9282784381663 46.1635617843881 49.4744969043952
endloop
endfacet
facet normal 0.605849913410782 0.59403412517586 -0.529215778814936
outer loop
vertex 98.8284271247463 131.981306390605 59.1383614890625
vertex 93.9282784381663 128.369535830391 49.4744969043953
vertex 98.0000000000001 132.616963564756 59.1336695081763
endloop
endfacet
facet normal -0.121317961519987 -0.924070266924612 -0.362458403128567
outer loop
vertex -26.0 41.673034456354 59.8049545883062
vertex -27.0352761804101 41.8093274383757 59.8039485679344
vertex -22.0677105278659 45.2088087040264 49.4744969043952
endloop
endfacet
facet normal 0.445894103084085 0.739990278217689 -0.503580020431854
outer loop
vertex 98.0000000000001 132.616963564756 59.1336695081763
vertex 93.9282784381663 128.369535830391 49.4744969043953
vertex 93.1648000000001 128.955767977226 49.4744969043953
endloop
endfacet
facet normal 0.605849913410782 0.59403412517586 -0.529215778814936
outer loop
vertex 98.8284271247463 131.981306390605 59.1383614890625
vertex 99.4641016151378 131.152901832822 59.1444761976021
vertex 93.9282784381663 128.369535830391 49.4744969043953
endloop
endfacet
facet normal -0.615277502272011 -0.609117788212818 -0.500408948042138
outer loop
vertex -28.8284271247462 42.8445754171016 59.7963070845594
vertex -23.7202784381661 46.1635617843881 49.4744969043952
vertex -22.9567999999999 45.5773296375533 49.4744969043953
endloop
endfacet
facet normal 0.733886127161504 0.423567738758307 -0.531038155920139
outer loop
vertex 99.4641016151378 131.152901832822 59.1444761976021
vertex 94.5141160485112 127.605543222261 49.4744969043952
vertex 93.9282784381663 128.369535830391 49.4744969043953
endloop
endfacet
facet normal 0.85129768190814 -0.215985630400233 -0.478165728841415
outer loop
vertex 94.8823889660322 47.8172426282576 49.4744969043952
vertex 100.0 45.6729254934141 59.7754301637332
vertex 99.8637033051563 44.637677514688 59.7830716471084
endloop
endfacet
facet normal 0.257644198253318 -0.876295140173452 -0.407094945209095
outer loop
vertex 97.0352761804102 41.8093274383757 59.8039485679344
vertex 92.2757105278662 45.2088087040264 49.4744969043952
vertex 98.0000000000001 42.2089182429504 59.8009990654454
endloop
endfacet
facet normal 0.85129768190814 -0.215985630400233 -0.478165728841415
outer loop
vertex 94.8823889660322 47.8172426282576 49.4744969043952
vertex 99.8637033051563 44.637677514688 59.7830716471084
vertex 94.5141160485112 46.9275543925182 49.4744969043952
endloop
endfacet
facet normal 0.121412440219399 -0.924903611209049 -0.360294781161802
outer loop
vertex 96.0000000000001 41.673034456354 59.8049545883062
vertex 91.3216000000001 45.0831130764175 49.4744969043952
vertex 97.0352761804102 41.8093274383757 59.8039485679344
endloop
endfacet
facet normal 0.829026302620046 0.230731281017237 -0.509390288015271
outer loop
vertex 99.8637033051563 130.188204293018 59.1515969265134
vertex 95.0080000000002 125.76110190616 49.4744969043953
vertex 94.8823889660322 126.715854986522 49.4744969043953
endloop
endfacet
facet normal 0.829026302620046 0.230731281017237 -0.509390288015271
outer loop
vertex 99.8637033051563 130.188204293018 59.1515969265134
vertex 100.0 129.152956314292 59.1592384098885
vertex 95.0080000000002 125.76110190616 49.4744969043953
endloop
endfacet
facet normal 0.733886127161504 0.423567738758307 -0.531038155920139
outer loop
vertex 99.4641016151378 131.152901832822 59.1444761976021
vertex 94.8823889660322 126.715854986522 49.4744969043953
vertex 94.5141160485112 127.605543222261 49.4744969043952
endloop
endfacet
facet normal 0.454688035788769 -0.761848226378202 -0.461352435861065
outer loop
vertex 98.0000000000001 42.2089182429504 59.8009990654454
vertex 92.2757105278662 45.2088087040264 49.4744969043952
vertex 93.1648000000001 45.5773296375533 49.4744969043953
endloop
endfacet
facet normal -0.453456329273055 -0.758068623735677 -0.468731606732151
outer loop
vertex -28.0 42.2089182429504 59.8009990654454
vertex -28.8284271247462 42.8445754171016 59.7963070845594
vertex -22.9567999999999 45.5773296375533 49.4744969043953
endloop
endfacet
facet normal 6.98824018915427e-20 1.47971912500822e-15 -1.0
outer loop
vertex 87.0080000000002 125.76110190616 49.4744969043953
vertex -16.8 48.7719957086194 49.4744969043952
vertex -16.8 125.76110190616 49.4744969043953
endloop
endfacet
facet normal 6.98824018915427e-20 1.47971912500822e-15 -1.0
outer loop
vertex -16.8 48.7719957086194 49.4744969043952
vertex 87.0080000000002 125.76110190616 49.4744969043953
vertex 87.0080000000002 48.7719957086194 49.4744969043952
endloop
endfacet
facet normal -0.881537596278927 -0.00348472227425879 -0.472100967016
outer loop
vertex -30.0 129.152956314292 59.1592384098885
vertex -24.8 125.76110190616 49.4744969043953
vertex -30.0 45.6729254934141 59.7754301637332
endloop
endfacet
facet normal -0.892703526132088 4.59515758534076e-16 -0.450644443471056
outer loop
vertex -24.8 125.76110190616 49.4744969043953
vertex -24.8 48.7719957086194 49.4744969043952
vertex -30.0 45.6729254934141 59.7754301637332
endloop
endfacet
facet normal -2.65336634130663e-18 -0.943791644045754 0.330540969668531
outer loop
vertex 34.0000000000001 129.152956314292 59.1592384098885
vertex -17.7113731523495 126.355572106978 51.1718840958475
vertex 33.0857725369531 126.355572106978 51.1718840958475
endloop
endfacet
facet normal -2.65336634130663e-18 -0.943791644045754 0.330540969668531
outer loop
vertex -17.7113731523495 126.355572106978 51.1718840958475
vertex 34.0000000000001 129.152956314292 59.1592384098885
vertex -22.0 129.152956314292 59.1592384098885
endloop
endfacet
facet normal -2.65336634130663e-18 -0.943791644045754 0.330540969668531
outer loop
vertex -22.0 129.152956314292 59.1592384098885
vertex 34.0000000000001 129.152956314292 59.1592384098885
vertex 33.0000000000001 129.152956314292 59.1592384098885
endloop
endfacet
facet normal -0.82167223985099 0.228112583727224 -0.522321145851427
outer loop
vertex -29.8637033051563 130.188204293018 59.1515969265134
vertex -24.674388966032 126.715854986522 49.4744969043953
vertex -24.8 125.76110190616 49.4744969043953
endloop
endfacet
facet normal 0.445894103084085 0.739990278217689 -0.503580020431854
outer loop
vertex 98.0000000000001 132.616963564756 59.1336695081763
vertex 93.1648000000001 128.955767977226 49.4744969043953
vertex 97.0352761804102 133.016554369331 59.1307200056873
endloop
endfacet
facet normal 0.253917817080492 0.855087592570071 -0.452051934186546
outer loop
vertex 97.0352761804102 133.016554369331 59.1307200056873
vertex 93.1648000000001 128.955767977226 49.4744969043953
vertex 92.2757105278662 129.324288910753 49.4744969043953
endloop
endfacet
facet normal 0.253917817080492 0.855087592570071 -0.452051934186546
outer loop
vertex 97.0352761804102 133.016554369331 59.1307200056873
vertex 92.2757105278662 129.324288910753 49.4744969043953
vertex 96.0000000000001 133.152847351352 59.1297139853157
endloop
endfacet
facet normal 0.119684296080705 0.90622248309523 -0.405507682300078
outer loop
vertex 96.0000000000001 133.152847351352 59.1297139853157
vertex 92.2757105278662 129.324288910753 49.4744969043953
vertex 91.3216000000001 129.449984538362 49.4744969043953
endloop
endfacet
facet normal -0.254325395602893 0.852441102932544 -0.456796189982557
outer loop
vertex -27.0352761804101 133.016554369331 59.1307200056873
vertex -26.0 133.152847351352 59.1297139853157
vertex -21.1135999999999 129.449984538362 49.4744969043953
endloop
endfacet
facet normal -0.254325395602893 0.852441102932544 -0.456796189982557
outer loop
vertex -27.0352761804101 133.016554369331 59.1307200056873
vertex -21.1135999999999 129.449984538362 49.4744969043953
vertex -22.0677105278659 129.324288910753 49.4744969043953
endloop
endfacet
facet normal -0.444514406936618 0.735721314038577 -0.511000088155704
outer loop
vertex -28.0 132.616963564756 59.1336695081763
vertex -27.0352761804101 133.016554369331 59.1307200056873
vertex -22.0677105278659 129.324288910753 49.4744969043953
endloop
endfacet
facet normal -0.444514406936618 0.735721314038577 -0.511000088155704
outer loop
vertex -28.0 132.616963564756 59.1336695081763
vertex -22.0677105278659 129.324288910753 49.4744969043953
vertex -22.9567999999999 128.955767977226 49.4744969043953
endloop
endfacet
facet normal -0.602173033154696 0.589390674154884 -0.538522303494038
outer loop
vertex -28.8284271247462 131.981306390605 59.1383614890625
vertex -28.0 132.616963564756 59.1336695081763
vertex -22.9567999999999 128.955767977226 49.4744969043953
endloop
endfacet
facet normal -0.602173033154696 0.589390674154884 -0.538522303494038
outer loop
vertex -28.8284271247462 131.981306390605 59.1383614890625
vertex -22.9567999999999 128.955767977226 49.4744969043953
vertex -23.7202784381661 128.369535830391 49.4744969043953
endloop
endfacet
facet normal -0.602173033154696 0.589390674154884 -0.538522303494038
outer loop
vertex -28.8284271247462 131.981306390605 59.1383614890625
vertex -23.7202784381661 128.369535830391 49.4744969043953
vertex -24.3061160485109 127.605543222261 49.4744969043952
endloop
endfacet
facet normal -0.602173033154696 0.589390674154884 -0.538522303494038
outer loop
vertex -28.8284271247462 131.981306390605 59.1383614890625
vertex -24.3061160485109 127.605543222261 49.4744969043952
vertex -29.4641016151377 131.152901832822 59.1444761976021
endloop
endfacet
facet normal 0.588805531252022 0.0120899291741675 0.80818431064924
outer loop
vertex 43.0287317770171 42.5753360218465 57.0715313511978
vertex 43.8705060025189 46.6883399703748 56.3967192834678
vertex 43.0276559708268 46.5018709297747 57.016519742564
endloop
endfacet
facet normal 0.588805531252022 0.0120899291741675 0.80818431064924
outer loop
vertex 43.8705060025189 46.6883399703748 56.3967192834678
vertex 43.0287317770171 42.5753360218465 57.0715313511978
vertex 43.8718243201734 42.7781236711396 56.4572084973152
endloop
endfacet
facet normal -0.728188036792044 0.419367770233196 -0.542100411697488
outer loop
vertex -29.4641016151377 131.152901832822 59.1444761976021
vertex -24.3061160485109 127.605543222261 49.4744969043952
vertex -24.674388966032 126.715854986522 49.4744969043953
endloop
endfacet
facet normal -0.728188036792044 0.419367770233196 -0.542100411697488
outer loop
vertex -29.4641016151377 131.152901832822 59.1444761976021
vertex -24.674388966032 126.715854986522 49.4744969043953
vertex -29.8637033051563 130.188204293018 59.1515969265134
endloop
endfacet
facet normal -0.82167223985099 0.228112583727224 -0.522321145851427
outer loop
vertex -29.8637033051563 130.188204293018 59.1515969265134
vertex -24.8 125.76110190616 49.4744969043953
vertex -30.0 129.152956314292 59.1592384098885
endloop
endfacet
facet normal -0.844131737180362 -0.214600367437823 -0.49131282558103
outer loop
vertex -24.674388966032 47.8172426282576 49.4744969043952
vertex -29.8637033051563 44.637677514688 59.7830716471084
vertex -30.0 45.6729254934141 59.7754301637332
endloop
endfacet
facet normal -0.365549835541493 0.0149768453850466 0.930671269481282
outer loop
vertex 46.9608331631751 42.9056013166913 56.0710290071217
vertex 47.9413149134247 46.6887788617895 56.3952604616743
vertex 46.9593611435003 46.8058352083306 56.00617937297
endloop
endfacet
facet normal -0.365549835541493 0.0149768453850466 0.930671269481282
outer loop
vertex 47.9413149134247 46.6887788617895 56.3952604616743
vertex 46.9608331631751 42.9056013166913 56.0710290071217
vertex 47.9426352242202 42.7781236711396 56.4572084973152
endloop
endfacet
facet normal -0.258109354401609 -0.873943594733611 -0.411827821297299
outer loop
vertex -27.0352761804101 41.8093274383757 59.8039485679344
vertex -28.0 42.2089182429504 59.8009990654454
vertex -22.9567999999999 45.5773296375533 49.4744969043953
endloop
endfacet
facet normal 0.889342334119926 -0.00337495146215163 -0.457229507408204
outer loop
vertex 100.0 129.152956314292 59.1592384098885
vertex 100.0 45.6729254934141 59.7754301637332
vertex 95.0080000000002 125.76110190616 49.4744969043953
endloop
endfacet
facet normal -1.24436340047098e-18 -0.949600535308896 -0.313462634680848
outer loop
vertex 96.0000000000001 41.673034456354 59.8049545883062
vertex -21.1135999999999 45.0831130764175 49.4744969043952
vertex 91.3216000000001 45.0831130764175 49.4744969043952
endloop
endfacet
facet normal -1.24436340047098e-18 -0.949600535308896 -0.313462634680848
outer loop
vertex -21.1135999999999 45.0831130764175 49.4744969043952
vertex 96.0000000000001 41.673034456354 59.8049545883062
vertex 45.9072297721968 42.949081567624 55.9393103746819
endloop
endfacet
facet normal -1.24436340047098e-18 -0.949600535308896 -0.313462634680848
outer loop
vertex 45.9072297721968 42.949081567624 55.9393103746819
vertex 96.0000000000001 41.673034456354 59.8049545883062
vertex 46.9608331631751 42.9056013166913 56.0710290071217
endloop
endfacet
facet normal -1.24436340047098e-18 -0.949600535308896 -0.313462634680848
outer loop
vertex 46.9608331631751 42.9056013166913 56.0710290071217
vertex 96.0000000000001 41.673034456354 59.8049545883062
vertex 47.9426352242202 42.7781236711396 56.4572084973152
endloop
endfacet
facet normal -1.24436340047098e-18 -0.949600535308896 -0.313462634680848
outer loop
vertex 47.9426352242202 42.7781236711396 56.4572084973152
vertex 96.0000000000001 41.673034456354 59.8049545883062
vertex 48.7857277673765 42.5753360218465 57.0715313511978
endloop
endfacet
facet normal -1.24436340047098e-18 -0.949600535308896 -0.313462634680848
outer loop
vertex 48.7857277673765 42.5753360218465 57.0715313511978
vertex 96.0000000000001 41.673034456354 59.8049545883062
vertex 49.4326554291041 42.311058011989 57.872132481494
endloop
endfacet
facet normal -1.24436340047098e-18 -0.949600535308896 -0.313462634680848
outer loop
vertex 49.4326554291041 42.311058011989 57.872132481494
vertex 96.0000000000001 41.673034456354 59.8049545883062
vertex 49.8393311583548 42.0032997511987 58.8044522442298
endloop
endfacet
facet normal -1.24436340047098e-18 -0.949600535308896 -0.313462634680848
outer loop
vertex 49.8393311583548 42.0032997511987 58.8044522442298
vertex 96.0000000000001 41.673034456354 59.8049545883062
vertex 49.9780406762437 41.673034456354 59.8049545883062
endloop
endfacet
facet normal -1.24436340047098e-18 -0.949600535308896 -0.313462634680848
outer loop
vertex 41.83641886815 41.673034456354 59.8049545883062
vertex 35.0000000000001 41.6730319258347 59.8046115859903
vertex 41.9751283860388 42.0032997511987 58.8044522442298
endloop
endfacet
facet normal -1.24436340047098e-18 -0.949600535308896 -0.313462634680848
outer loop
vertex 45.9072297721968 42.949081567624 55.9393103746819
vertex -26.0 41.673034456354 59.8049545883062
vertex -21.1135999999999 45.0831130764175 49.4744969043952
endloop
endfacet
facet normal -1.24436340047098e-18 -0.949600535308896 -0.313462634680848
outer loop
vertex -26.0 41.673034456354 59.8049545883062
vertex 45.9072297721968 42.949081567624 55.9393103746819
vertex 44.8536263812185 42.9056013166913 56.0710290071217
endloop
endfacet
facet normal -1.24436340047098e-18 -0.949600535308896 -0.313462634680848
outer loop
vertex -26.0 41.673034456354 59.8049545883062
vertex 44.8536263812185 42.9056013166913 56.0710290071217
vertex 43.8718243201734 42.7781236711396 56.4572084973152
endloop
endfacet
facet normal -1.24436340047098e-18 -0.949600535308896 -0.313462634680848
outer loop
vertex -26.0 41.673034456354 59.8049545883062
vertex 43.8718243201734 42.7781236711396 56.4572084973152
vertex 43.0287317770171 42.5753360218465 57.0715313511978
endloop
endfacet
facet normal -1.24436340047098e-18 -0.949600535308896 -0.313462634680848
outer loop
vertex -26.0 41.673034456354 59.8049545883062
vertex 43.0287317770171 42.5753360218465 57.0715313511978
vertex 42.3818041152895 42.3110580119891 57.8721324814939
endloop
endfacet
facet normal -1.24436340047098e-18 -0.949600535308896 -0.313462634680848
outer loop
vertex -26.0 41.673034456354 59.8049545883062
vertex 42.3818041152895 42.3110580119891 57.8721324814939
vertex 41.9751283860388 42.0032997511987 58.8044522442298
endloop
endfacet
facet normal -1.24436340047098e-18 -0.949600535308896 -0.313462634680848
outer loop
vertex -26.0 41.673034456354 59.8049545883062
vertex 41.9751283860388 42.0032997511987 58.8044522442298
vertex 35.0000000000001 41.6730319258347 59.8046115859903
endloop
endfacet
facet normal 2.33583594292104e-17 0.933691282535397 -0.358079026078609
outer loop
vertex -26.0 133.152847351352 59.1297139853157
vertex 91.3216000000001 129.449984538362 49.4744969043953
vertex -21.1135999999999 129.449984538362 49.4744969043953
endloop
endfacet
facet normal 2.33583594292104e-17 0.933691282535397 -0.358079026078609
outer loop
vertex 91.3216000000001 129.449984538362 49.4744969043953
vertex -26.0 133.152847351352 59.1297139853157
vertex 96.0000000000001 133.152847351352 59.1297139853157
endloop
endfacet
facet normal 2.33583594292104e-17 0.933691282535397 -0.358079026078609
outer loop
vertex 96.0000000000001 133.152847351352 59.1297139853157
vertex -26.0 133.152847351352 59.1297139853157
vertex 35.0000000000001 133.152847351352 59.1297139853157
endloop
endfacet
facet normal -0.258109354401609 -0.873943594733611 -0.411827821297299
outer loop
vertex -27.0352761804101 41.8093274383757 59.8039485679344
vertex -22.9567999999999 45.5773296375533 49.4744969043953
vertex -22.0677105278659 45.2088087040264 49.4744969043952
endloop
endfacet
facet normal -0.746420128561506 -0.429127896545217 -0.508631733265731
outer loop
vertex -24.3061160485109 46.9275543925182 49.4744969043952
vertex -29.4641016151377 43.6729799748841 59.7901923760196
vertex -29.8637033051563 44.637677514688 59.7830716471084
endloop
endfacet
facet normal -0.872482901167503 -0.114787248754927 -0.474971025109545
outer loop
vertex -24.8 48.7719957086194 49.4744969043952
vertex -24.674388966032 47.8172426282576 49.4744969043952
vertex -30.0 45.6729254934141 59.7754301637332
endloop
endfacet
facet normal 0.777895626283371 0.00840213395793037 0.628337328792549
outer loop
vertex 43.0287317770171 42.5753360218465 57.0715313511978
vertex 42.3810441349774 46.2589084565787 57.8240975149669
vertex 42.3818041152895 42.3110580119891 57.8721324814939
endloop
endfacet
facet normal 0.777895626283371 0.00840213395793037 0.628337328792549
outer loop
vertex 42.3810441349774 46.2589084565787 57.8240975149669
vertex 43.0287317770171 42.5753360218465 57.0715313511978
vertex 43.0276559708268 46.5018709297747 57.016519742564
endloop
endfacet
facet normal 0.257644198253318 -0.876295140173452 -0.407094945209095
outer loop
vertex 97.0352761804102 41.8093274383757 59.8039485679344
vertex 91.3216000000001 45.0831130764175 49.4744969043952
vertex 92.2757105278662 45.2088087040264 49.4744969043952
endloop
endfacet
facet normal -0.746420128561506 -0.429127896545217 -0.508631733265731
outer loop
vertex -24.3061160485109 46.9275543925182 49.4744969043952
vertex -28.8284271247462 42.8445754171016 59.7963070845594
vertex -29.4641016151377 43.6729799748841 59.7901923760196
endloop
endfacet
facet normal 0.454688035788769 -0.761848226378202 -0.461352435861065
outer loop
vertex 98.0000000000001 42.2089182429504 59.8009990654454
vertex 93.1648000000001 45.5773296375533 49.4744969043953
vertex 98.8284271247463 42.8445754171016 59.7963070845593
endloop
endfacet
facet normal -0.844131737180362 -0.214600367437823 -0.49131282558103
outer loop
vertex -24.674388966032 47.8172426282576 49.4744969043952
vertex -24.3061160485109 46.9275543925182 49.4744969043952
vertex -29.8637033051563 44.637677514688 59.7830716471084
endloop
endfacet
facet normal 0.89989612029409 5.1833367669949e-16 -0.436104313988803
outer loop
vertex 95.0080000000002 125.76110190616 49.4744969043953
vertex 100.0 45.6729254934141 59.7754301637332
vertex 95.0080000000002 48.7719957086194 49.4744969043952
endloop
endfacet
facet normal -0.993926217982387 0.0127130187742104 0.109311721058972
outer loop
vertex 34.0000000000001 129.152956314292 59.1592384098885
vertex 33.0857725369531 126.355572106978 51.1718840958475
vertex 33.0000000000001 45.6729254934141 59.7754301637332
endloop
endfacet
facet normal 0.124081006886225 0.0165491313226398 0.992134078631798
outer loop
vertex 44.8536263812185 42.9056013166913 56.0710290071217
vertex 45.9057063593509 46.8456834590171 55.8737286240942
vertex 44.8521553932694 46.805608021417 56.0069345146972
endloop
endfacet
facet normal 0.124081006886225 0.0165491313226398 0.992134078631798
outer loop
vertex 45.9057063593509 46.8456834590171 55.8737286240942
vertex 44.8536263812185 42.9056013166913 56.0710290071217
vertex 45.9072297721968 42.949081567624 55.9393103746819
endloop
endfacet
facet normal -0.123726669332985 0.016550331007793 0.992178309498499
outer loop
vertex 45.9072297721968 42.949081567624 55.9393103746819
vertex 46.9593611435003 46.8058352083306 56.00617937297
vertex 45.9057063593509 46.8456834590171 55.8737286240942
endloop
endfacet
facet normal -0.123726669332985 0.016550331007793 0.992178309498499
outer loop
vertex 46.9593611435003 46.8058352083306 56.00617937297
vertex 45.9072297721968 42.949081567624 55.9393103746819
vertex 46.9608331631751 42.9056013166913 56.0710290071217
endloop
endfacet
facet normal -4.74902800815095e-19 -0.943791644045754 0.330540969668531
outer loop
vertex 92.0000000000001 129.152956314292 59.1592384098885
vertex 37.0857725369531 126.355572106978 51.1718840958475
vertex 87.8829182262557 126.355572106978 51.1718840958475
endloop
endfacet
facet normal -4.74902800815095e-19 -0.943791644045754 0.330540969668531
outer loop
vertex 37.0857725369531 126.355572106978 51.1718840958475
vertex 92.0000000000001 129.152956314292 59.1592384098885
vertex 37.0000000000001 129.152956314292 59.1592384098885
endloop
endfacet
facet normal -0.888952641300829 0.000605063941803043 0.457998728624771
outer loop
vertex 92.0000000000001 129.152956314292 59.1592384098885
vertex 87.8829182262557 126.355572106978 51.1718840958475
vertex 87.8436246588935 48.253233791258 51.1987985552601
endloop
endfacet
facet normal -1.33083385604417e-05 0.957588104721807 0.28814062802421
outer loop
vertex 37.0865911529398 48.253233791258 51.1987985552601
vertex 45.9057063593509 46.8456834590171 55.8737286240942
vertex 87.8436246588935 48.253233791258 51.1987985552601
endloop
endfacet
facet normal -1.33083385604417e-05 0.957588104721807 0.28814062802421
outer loop
vertex 45.9057063593509 46.8456834590171 55.8737286240942
vertex 37.0865911529398 48.253233791258 51.1987985552601
vertex 44.8521553932694 46.805608021417 56.0069345146972
endloop
endfacet
facet normal -1.33083385604417e-05 0.957588104721807 0.28814062802421
outer loop
vertex 44.8521553932694 46.805608021417 56.0069345146972
vertex 37.0865911529398 48.253233791258 51.1987985552601
vertex 43.8705060025189 46.6883399703748 56.3967192834678
endloop
endfacet
facet normal -1.33083385604417e-05 0.957588104721807 0.28814062802421
outer loop
vertex 43.8705060025189 46.6883399703748 56.3967192834678
vertex 37.0865911529398 48.253233791258 51.1987985552601
vertex 37.0000000000001 45.6729254934141 59.7754301637332
endloop
endfacet
facet normal -1.33083385604417e-05 0.957588104721807 0.28814062802421
outer loop
vertex 43.8705060025189 46.6883399703748 56.3967192834678
vertex 37.0000000000001 45.6729254934141 59.7754301637332
vertex 43.0276559708268 46.5018709297747 57.016519742564
endloop
endfacet
facet normal -1.33083385604417e-05 0.957588104721807 0.28814062802421
outer loop
vertex 43.0276559708268 46.5018709297747 57.016519742564
vertex 37.0000000000001 45.6729254934141 59.7754301637332
vertex 42.3810441349774 46.2589084565787 57.8240975149669
endloop
endfacet
facet normal -1.33083385604417e-05 0.957588104721807 0.28814062802421
outer loop
vertex 42.3810441349774 46.2589084565787 57.8240975149669
vertex 37.0000000000001 45.6729254934141 59.7754301637332
vertex 41.9747360230072 45.9760100418207 58.7644175100729
endloop
endfacet
facet normal -1.33083385604417e-05 0.957588104721807 0.28814062802421
outer loop
vertex 41.9747360230072 45.9760100418207 58.7644175100729
vertex 37.0000000000001 45.6729254934141 59.7754301637332
vertex 41.836420861291 45.6724547449546 59.7733984741676
endloop
endfacet
facet normal -1.33083385604417e-05 0.957588104721807 0.28814062802421
outer loop
vertex 45.9057063593509 46.8456834590171 55.8737286240942
vertex 92.0000000000001 45.6729254934141 59.7754301637332
vertex 87.8436246588935 48.253233791258 51.1987985552601
endloop
endfacet
facet normal -1.33083385604417e-05 0.957588104721807 0.28814062802421
outer loop
vertex 92.0000000000001 45.6729254934141 59.7754301637332
vertex 45.9057063593509 46.8456834590171 55.8737286240942
vertex 46.9593611435003 46.8058352083306 56.00617937297
endloop
endfacet
facet normal -1.33083385604417e-05 0.957588104721807 0.28814062802421
outer loop
vertex 92.0000000000001 45.6729254934141 59.7754301637332
vertex 46.9593611435003 46.8058352083306 56.00617937297
vertex 47.9413149134247 46.6887788617895 56.3952604616743
endloop
endfacet
facet normal -1.33083385604417e-05 0.957588104721807 0.28814062802421
outer loop
vertex 92.0000000000001 45.6729254934141 59.7754301637332
vertex 47.9413149134247 46.6887788617895 56.3952604616743
vertex 48.784649142459 46.5024916159656 57.0144566569984
endloop
endfacet
facet normal -1.33083385604417e-05 0.957588104721807 0.28814062802421
outer loop
vertex 92.0000000000001 45.6729254934141 59.7754301637332
vertex 48.784649142459 46.5024916159656 57.0144566569984
vertex 49.4318919965703 46.2596686388077 57.8215707615014
endloop
endfacet
facet normal -1.33083385604417e-05 0.957588104721807 0.28814062802421
outer loop
vertex 92.0000000000001 45.6729254934141 59.7754301637332
vertex 49.4318919965703 46.2596686388077 57.8215707615014
vertex 49.8389349448703 45.9768579149252 58.7615992827802
endloop
endfacet
facet normal -1.33083385604417e-05 0.957588104721807 0.28814062802421
outer loop
vertex 92.0000000000001 45.6729254934141 59.7754301637332
vertex 49.8389349448703 45.9768579149252 58.7615992827802
vertex 49.9780386831026 45.6733325277838 59.7704808305805
endloop
endfacet
facet normal -4.64503995169179e-19 -4.15292800148848e-15 -1.0
outer loop
vertex -16.8 48.7719957086194 49.4744969043952
vertex -24.674388966032 47.8172426282576 49.4744969043952
vertex -24.8 48.7719957086194 49.4744969043952
endloop
endfacet
facet normal -4.64503995169179e-19 -4.15292800148848e-15 -1.0
outer loop
vertex -24.674388966032 47.8172426282576 49.4744969043952
vertex -16.8 48.7719957086194 49.4744969043952
vertex -24.3061160485109 46.9275543925182 49.4744969043952
endloop
endfacet
facet normal -4.64503995169179e-19 -4.15292800148848e-15 -1.0
outer loop
vertex -24.3061160485109 46.9275543925182 49.4744969043952
vertex -16.8 48.7719957086194 49.4744969043952
vertex -23.7202784381661 46.1635617843881 49.4744969043952
endloop
endfacet
facet normal -4.64503995169179e-19 -4.15292800148848e-15 -1.0
outer loop
vertex -23.7202784381661 46.1635617843881 49.4744969043952
vertex -16.8 48.7719957086194 49.4744969043952
vertex -22.9567999999999 45.5773296375533 49.4744969043953
endloop
endfacet
facet normal -4.64503995169179e-19 -4.15292800148848e-15 -1.0
outer loop
vertex -22.9567999999999 45.5773296375533 49.4744969043953
vertex -16.8 48.7719957086194 49.4744969043952
vertex -22.0677105278659 45.2088087040264 49.4744969043952
endloop
endfacet
facet normal -4.64503995169179e-19 -4.15292800148848e-15 -1.0
outer loop
vertex -22.0677105278659 45.2088087040264 49.4744969043952
vertex -16.8 48.7719957086194 49.4744969043952
vertex -21.1135999999999 45.0831130764175 49.4744969043952
endloop
endfacet
facet normal -4.64503995169179e-19 -4.15292800148848e-15 -1.0
outer loop
vertex -21.1135999999999 45.0831130764175 49.4744969043952
vertex -16.8 48.7719957086194 49.4744969043952
vertex 91.3216000000001 45.0831130764175 49.4744969043952
endloop
endfacet
facet normal -4.64503995169179e-19 -4.15292800148848e-15 -1.0
outer loop
vertex 91.3216000000001 45.0831130764175 49.4744969043952
vertex -16.8 48.7719957086194 49.4744969043952
vertex 87.0080000000002 48.7719957086194 49.4744969043952
endloop
endfacet
facet normal -4.64503995169179e-19 -4.15292800148848e-15 -1.0
outer loop
vertex 91.3216000000001 45.0831130764175 49.4744969043952
vertex 87.0080000000002 48.7719957086194 49.4744969043952
vertex 95.0080000000002 48.7719957086194 49.4744969043952
endloop
endfacet
facet normal -4.64503995169179e-19 -4.15292800148848e-15 -1.0
outer loop
vertex 91.3216000000001 45.0831130764175 49.4744969043952
vertex 95.0080000000002 48.7719957086194 49.4744969043952
vertex 92.2757105278662 45.2088087040264 49.4744969043952
endloop
endfacet
facet normal -4.64503995169179e-19 -4.15292800148848e-15 -1.0
outer loop
vertex 92.2757105278662 45.2088087040264 49.4744969043952
vertex 95.0080000000002 48.7719957086194 49.4744969043952
vertex 93.1648000000001 45.5773296375533 49.4744969043953
endloop
endfacet
facet normal -4.64503995169179e-19 -4.15292800148848e-15 -1.0
outer loop
vertex 93.1648000000001 45.5773296375533 49.4744969043953
vertex 95.0080000000002 48.7719957086194 49.4744969043952
vertex 93.9282784381663 46.1635617843881 49.4744969043952
endloop
endfacet
facet normal -4.64503995169179e-19 -4.15292800148848e-15 -1.0
outer loop
vertex 93.9282784381663 46.1635617843881 49.4744969043952
vertex 95.0080000000002 48.7719957086194 49.4744969043952
vertex 94.5141160485112 46.9275543925182 49.4744969043952
endloop
endfacet
facet normal -4.64503995169179e-19 -4.15292800148848e-15 -1.0
outer loop
vertex 94.5141160485112 46.9275543925182 49.4744969043952
vertex 95.0080000000002 48.7719957086194 49.4744969043952
vertex 94.8823889660322 47.8172426282576 49.4744969043952
endloop
endfacet
facet normal -1.19219857276685e-05 0.00737698416575212 0.99997278961104
outer loop
vertex 35.0000000000001 41.6730319258347 59.8046115859903
vertex 37.0000000000001 45.6729254934141 59.7754301637332
vertex 35.0000000000001 133.152847351352 59.1297139853157
endloop
endfacet
facet normal -1.19219857276685e-05 0.00737698416575212 0.99997278961104
outer loop
vertex 37.0000000000001 45.6729254934141 59.7754301637332
vertex 35.0000000000001 41.6730319258347 59.8046115859903
vertex 41.83641886815 41.673034456354 59.8049545883062
endloop
endfacet
facet normal -1.19219857276685e-05 0.00737698416575212 0.99997278961104
outer loop
vertex 37.0000000000001 45.6729254934141 59.7754301637332
vertex 41.83641886815 41.673034456354 59.8049545883062
vertex 41.836420861291 45.6724547449546 59.7733984741676
endloop
endfacet
facet normal -1.19219857276685e-05 0.00737698416575212 0.99997278961104
outer loop
vertex 49.9780406762437 41.673034456354 59.8049545883062
vertex 92.0000000000001 45.6729254934141 59.7754301637332
vertex 49.9780386831026 45.6733325277838 59.7704808305805
endloop
endfacet
facet normal -1.19219857276685e-05 0.00737698416575212 0.99997278961104
outer loop
vertex 92.0000000000001 45.6729254934141 59.7754301637332
vertex 49.9780406762437 41.673034456354 59.8049545883062
vertex 96.0000000000001 41.673034456354 59.8049545883062
endloop
endfacet
facet normal -1.19219857276685e-05 0.00737698416575212 0.99997278961104
outer loop
vertex 92.0000000000001 45.6729254934141 59.7754301637332
vertex 96.0000000000001 41.673034456354 59.8049545883062
vertex 92.0000000000001 129.152956314292 59.1592384098885
endloop
endfacet
facet normal -1.19219857276685e-05 0.00737698416575212 0.99997278961104
outer loop
vertex 35.0000000000001 133.152847351352 59.1297139853157
vertex 37.0000000000001 129.152956314292 59.1592384098885
vertex 96.0000000000001 133.152847351352 59.1297139853157
endloop
endfacet
facet normal -1.19219857276685e-05 0.00737698416575212 0.99997278961104
outer loop
vertex 37.0000000000001 129.152956314292 59.1592384098885
vertex 35.0000000000001 133.152847351352 59.1297139853157
vertex 37.0000000000001 45.6729254934141 59.7754301637332
endloop
endfacet
facet normal -1.19219857276685e-05 0.00737698416575212 0.99997278961104
outer loop
vertex 96.0000000000001 133.152847351352 59.1297139853157
vertex 37.0000000000001 129.152956314292 59.1592384098885
vertex 92.0000000000001 129.152956314292 59.1592384098885
endloop
endfacet
facet normal -1.19219857276685e-05 0.00737698416575212 0.99997278961104
outer loop
vertex 96.0000000000001 133.152847351352 59.1297139853157
vertex 92.0000000000001 129.152956314292 59.1592384098885
vertex 96.0000000000001 41.673034456354 59.8049545883062
endloop
endfacet
facet normal -1.19219857276685e-05 0.00737698416575212 0.99997278961104
outer loop
vertex 96.0000000000001 133.152847351352 59.1297139853157
vertex 96.0000000000001 41.673034456354 59.8049545883062
vertex 97.0352761804102 41.8093274383757 59.8039485679344
endloop
endfacet
facet normal -1.19219857276685e-05 0.00737698416575212 0.99997278961104
outer loop
vertex 96.0000000000001 133.152847351352 59.1297139853157
vertex 97.0352761804102 41.8093274383757 59.8039485679344
vertex 97.0352761804102 133.016554369331 59.1307200056873
endloop
endfacet
facet normal -1.19219857276685e-05 0.00737698416575212 0.99997278961104
outer loop
vertex 97.0352761804102 133.016554369331 59.1307200056873
vertex 97.0352761804102 41.8093274383757 59.8039485679344
vertex 98.0000000000001 42.2089182429504 59.8009990654454
endloop
endfacet
facet normal -1.19219857276685e-05 0.00737698416575212 0.99997278961104
outer loop
vertex 97.0352761804102 133.016554369331 59.1307200056873
vertex 98.0000000000001 42.2089182429504 59.8009990654454
vertex 98.0000000000001 132.616963564756 59.1336695081763
endloop
endfacet
facet normal -1.19219857276685e-05 0.00737698416575212 0.99997278961104
outer loop
vertex 98.0000000000001 132.616963564756 59.1336695081763
vertex 98.0000000000001 42.2089182429504 59.8009990654454
vertex 98.8284271247463 42.8445754171016 59.7963070845593
endloop
endfacet
facet normal -1.19219857276685e-05 0.00737698416575212 0.99997278961104
outer loop
vertex 98.0000000000001 132.616963564756 59.1336695081763
vertex 98.8284271247463 42.8445754171016 59.7963070845593
vertex 98.8284271247463 131.981306390605 59.1383614890625
endloop
endfacet
facet normal -1.19219857276685e-05 0.00737698416575212 0.99997278961104
outer loop
vertex 98.8284271247463 131.981306390605 59.1383614890625
vertex 98.8284271247463 42.8445754171016 59.7963070845593
vertex 99.4641016151378 43.6729799748841 59.7901923760196
endloop
endfacet
facet normal -1.19219857276685e-05 0.00737698416575212 0.99997278961104
outer loop
vertex 98.8284271247463 131.981306390605 59.1383614890625
vertex 99.4641016151378 43.6729799748841 59.7901923760196
vertex 99.4641016151378 131.152901832822 59.1444761976021
endloop
endfacet
facet normal -1.19219857276685e-05 0.00737698416575212 0.99997278961104
outer loop
vertex 99.4641016151378 131.152901832822 59.1444761976021
vertex 99.4641016151378 43.6729799748841 59.7901923760196
vertex 99.8637033051563 44.637677514688 59.7830716471084
endloop
endfacet
facet normal -1.19219857276685e-05 0.00737698416575212 0.99997278961104
outer loop
vertex 99.4641016151378 131.152901832822 59.1444761976021
vertex 99.8637033051563 44.637677514688 59.7830716471084
vertex 99.8637033051563 130.188204293018 59.1515969265134
endloop
endfacet
facet normal -1.19219857276685e-05 0.00737698416575212 0.99997278961104
outer loop
vertex 99.8637033051563 130.188204293018 59.1515969265134
vertex 99.8637033051563 44.637677514688 59.7830716471084
vertex 100.0 45.6729254934141 59.7754301637332
endloop
endfacet
facet normal -1.19219857276685e-05 0.00737698416575212 0.99997278961104
outer loop
vertex 99.8637033051563 130.188204293018 59.1515969265134
vertex 100.0 45.6729254934141 59.7754301637332
vertex 100.0 129.152956314292 59.1592384098885
endloop
endfacet
facet normal 0.365886354769023 0.0149734446969444 0.930539075669445
outer loop
vertex 43.8718243201734 42.7781236711396 56.4572084973152
vertex 44.8521553932694 46.805608021417 56.0069345146972
vertex 43.8705060025189 46.6883399703748 56.3967192834678
endloop
endfacet
facet normal 0.365886354769023 0.0149734446969444 0.930539075669445
outer loop
vertex 44.8521553932694 46.805608021417 56.0069345146972
vertex 43.8718243201734 42.7781236711396 56.4572084973152
vertex 44.8536263812185 42.9056013166913 56.0710290071217
endloop
endfacet
facet normal -0.999949986122178 -3.44648530421049e-06 -0.0100012620392529
outer loop
vertex 33.0857725369531 126.355572106978 51.1718840958475
vertex 33.0857725369531 48.253233791258 51.1987985552601
vertex 33.0000000000001 45.6729254934141 59.7754301637332
endloop
endfacet
facet normal 0.0 1.47971912500822e-15 -1.0
outer loop
vertex 95.0080000000002 125.76110190616 49.4744969043953
vertex 87.0080000000002 48.7719957086194 49.4744969043952
vertex 87.0080000000002 125.76110190616 49.4744969043953
endloop
endfacet
facet normal 0.0 1.47971912500822e-15 -1.0
outer loop
vertex 87.0080000000002 48.7719957086194 49.4744969043952
vertex 95.0080000000002 125.76110190616 49.4744969043953
vertex 95.0080000000002 48.7719957086194 49.4744969043952
endloop
endfacet
facet normal -0.89951034757284 0.00322480125828294 0.436887554487688
outer loop
vertex 92.0000000000001 129.152956314292 59.1592384098885
vertex 87.8436246588935 48.253233791258 51.1987985552601
vertex 92.0000000000001 45.6729254934141 59.7754301637332
endloop
endfacet
facet normal 2.69222625572189e-06 0.00738060900846039 0.999972762930779
outer loop
vertex -29.8637033051563 44.637677514688 59.7830716471084
vertex -30.0 129.152956314292 59.1592384098885
vertex -30.0 45.6729254934141 59.7754301637332
endloop
endfacet
facet normal 2.69222625572189e-06 0.00738060900846039 0.999972762930779
outer loop
vertex -30.0 129.152956314292 59.1592384098885
vertex -29.8637033051563 44.637677514688 59.7830716471084
vertex -29.8637033051563 130.188204293018 59.1515969265134
endloop
endfacet
facet normal 2.69222625572189e-06 0.00738060900846039 0.999972762930779
outer loop
vertex -29.8637033051563 130.188204293018 59.1515969265134
vertex -29.8637033051563 44.637677514688 59.7830716471084
vertex -29.4641016151377 43.6729799748841 59.7901923760196
endloop
endfacet
facet normal 2.69222625572189e-06 0.00738060900846039 0.999972762930779
outer loop
vertex -29.8637033051563 130.188204293018 59.1515969265134
vertex -29.4641016151377 43.6729799748841 59.7901923760196
vertex -29.4641016151377 131.152901832822 59.1444761976021
endloop
endfacet
facet normal 2.69222625572189e-06 0.00738060900846039 0.999972762930779
outer loop
vertex -29.4641016151377 131.152901832822 59.1444761976021
vertex -29.4641016151377 43.6729799748841 59.7901923760196
vertex -28.8284271247462 42.8445754171016 59.7963070845594
endloop
endfacet
facet normal 2.69222625572189e-06 0.00738060900846039 0.999972762930779
outer loop
vertex -29.4641016151377 131.152901832822 59.1444761976021
vertex -28.8284271247462 42.8445754171016 59.7963070845594
vertex -28.8284271247462 131.981306390605 59.1383614890625
endloop
endfacet
facet normal 2.69222625572189e-06 0.00738060900846039 0.999972762930779
outer loop
vertex -28.8284271247462 131.981306390605 59.1383614890625
vertex -28.8284271247462 42.8445754171016 59.7963070845594
vertex -28.0 42.2089182429504 59.8009990654454
endloop
endfacet
facet normal 2.69222625572189e-06 0.00738060900846039 0.999972762930779
outer loop
vertex -28.8284271247462 131.981306390605 59.1383614890625
vertex -28.0 42.2089182429504 59.8009990654454
vertex -28.0 132.616963564756 59.1336695081763
endloop
endfacet
facet normal 2.69222625572189e-06 0.00738060900846039 0.999972762930779
outer loop
vertex -28.0 132.616963564756 59.1336695081763
vertex -28.0 42.2089182429504 59.8009990654454
vertex -27.0352761804101 41.8093274383757 59.8039485679344
endloop
endfacet
facet normal 2.69222625572189e-06 0.00738060900846039 0.999972762930779
outer loop
vertex -28.0 132.616963564756 59.1336695081763
vertex -27.0352761804101 41.8093274383757 59.8039485679344
vertex -27.0352761804101 133.016554369331 59.1307200056873
endloop
endfacet
facet normal 2.69222625572189e-06 0.00738060900846039 0.999972762930779
outer loop
vertex -27.0352761804101 133.016554369331 59.1307200056873
vertex -27.0352761804101 41.8093274383757 59.8039485679344
vertex -26.0 41.673034456354 59.8049545883062
endloop
endfacet
facet normal 2.69222625572189e-06 0.00738060900846039 0.999972762930779
outer loop
vertex -27.0352761804101 133.016554369331 59.1307200056873
vertex -26.0 41.673034456354 59.8049545883062
vertex -26.0 133.152847351352 59.1297139853157
endloop
endfacet
facet normal 2.69222625572189e-06 0.00738060900846039 0.999972762930779
outer loop
vertex -26.0 133.152847351352 59.1297139853157
vertex -26.0 41.673034456354 59.8049545883062
vertex -22.0 45.6729254934141 59.7754301637332
endloop
endfacet
facet normal 2.69222625572189e-06 0.00738060900846039 0.999972762930779
outer loop
vertex -22.0 45.6729254934141 59.7754301637332
vertex -26.0 41.673034456354 59.8049545883062
vertex 35.0000000000001 41.6730319258347 59.8046115859903
endloop
endfacet
facet normal 2.69222625572189e-06 0.00738060900846039 0.999972762930779
outer loop
vertex -22.0 45.6729254934141 59.7754301637332
vertex 35.0000000000001 41.6730319258347 59.8046115859903
vertex 33.0000000000001 45.6729254934141 59.7754301637332
endloop
endfacet
facet normal 2.69222625572189e-06 0.00738060900846039 0.999972762930779
outer loop
vertex 33.0000000000001 45.6729254934141 59.7754301637332
vertex 35.0000000000001 41.6730319258347 59.8046115859903
vertex 34.0000000000001 129.152956314292 59.1592384098885
endloop
endfacet
facet normal 2.69222625572189e-06 0.00738060900846039 0.999972762930779
outer loop
vertex -26.0 133.152847351352 59.1297139853157
vertex -22.0 129.152956314292 59.1592384098885
vertex 35.0000000000001 133.152847351352 59.1297139853157
endloop
endfacet
facet normal 2.69222625572189e-06 0.00738060900846039 0.999972762930779
outer loop
vertex -22.0 129.152956314292 59.1592384098885
vertex -26.0 133.152847351352 59.1297139853157
vertex -22.0 45.6729254934141 59.7754301637332
endloop
endfacet
facet normal 2.69222625572189e-06 0.00738060900846039 0.999972762930779
outer loop
vertex 35.0000000000001 133.152847351352 59.1297139853157
vertex -22.0 129.152956314292 59.1592384098885
vertex 33.0000000000001 129.152956314292 59.1592384098885
endloop
endfacet
facet normal 2.69222625572189e-06 0.00738060900846039 0.999972762930779
outer loop
vertex 35.0000000000001 133.152847351352 59.1297139853157
vertex 33.0000000000001 129.152956314292 59.1592384098885
vertex 34.0000000000001 129.152956314292 59.1592384098885
endloop
endfacet
facet normal 2.69222625572189e-06 0.00738060900846039 0.999972762930779
outer loop
vertex 35.0000000000001 133.152847351352 59.1297139853157
vertex 34.0000000000001 129.152956314292 59.1592384098885
vertex 35.0000000000001 41.6730319258347 59.8046115859903
endloop
endfacet
endsolid Pedal Case
